<?xml version="1.0" standalone="no"?>
<!DOCTYPE svg PUBLIC "-//W3C//DTD SVG 1.1//EN" "http://www.w3.org/Graphics/SVG/1.1/DTD/svg11.dtd" >
<svg>
<metadata>
Created by FontForge 20110222 at Fri Feb 27 21:50:32 2015
 By deploy user
(c) 2009 - 2014 Grandoplex Productions.
</metadata>
<defs>
<font id="8bitOperatorPlus-Bold" horiz-adv-x="800" >
  <font-face 
    font-family="8-bit Operator+"
    font-weight="700"
    font-stretch="normal"
    units-per-em="1152"
    panose-1="0 0 0 0 0 0 0 0 0 0"
    ascent="921"
    descent="-231"
    x-height="700"
    cap-height="900"
    bbox="0 -300 1900 1300"
    underline-thickness="100"
    underline-position="-100"
    unicode-range="U+0020-F000"
  />
<missing-glyph horiz-adv-x="1000" 
d="M400 300h200v100h100v100h100v300h-100v100h-400v-100h-100v-200h200v200h200v-300h-100v-100h-100v-100zM100 -300v1600h800v-1600h-800zM400 0h200v200h-200v-200z" />
    <glyph glyph-name=".notdef" horiz-adv-x="1000" 
d="M400 300h200v100h100v100h100v300h-100v100h-400v-100h-100v-200h200v200h200v-300h-100v-100h-100v-100zM100 -300v1600h800v-1600h-800zM400 0h200v200h-200v-200z" />
    <glyph glyph-name="space" unicode=" " horiz-adv-x="400" 
 />
    <glyph glyph-name="exclam" unicode="!" horiz-adv-x="400" 
d="M100 0v200h200v-200h-200zM100 300v600h200v-600h-200z" />
    <glyph glyph-name="quotedbl" unicode="&#x22;" horiz-adv-x="700" 
d="M100 600v300h200v-300h-200zM400 600v300h200v-300h-200z" />
    <glyph glyph-name="numbersign" unicode="#" horiz-adv-x="1000" 
d="M400 300h200v300h-200v-300zM200 0v200h-100v100h100v300h-100v100h100v200h200v-200h200v200h200v-200h100v-100h-100v-300h100v-100h-100v-200h-200v200h-200v-200h-200z" />
    <glyph glyph-name="dollar" unicode="$" 
d="M200 100h-100v200h200v-200h200v300h-300v100h-100v300h100v100h100v200h200v-200h100v-100h100v-200h-200v200h-200v-300h300v-100h100v-300h-100v-100h-100v-200h-200v200h-100v100z" />
    <glyph glyph-name="percent" unicode="%" horiz-adv-x="1400" 
d="M1000 100h100v300h-100v-300zM300 500h100v300h-100v-300zM600 500h100v100h100v100h100v100h100v100h200v-100h-100v-100h-100v-100h-100v-100h-100v-100h-100v-100h-100v-100h-100v-100h-100v-100h-200v100h100v100h100v100h100v100h100v100zM900 500h300v-100h100
v-300h-100v-100h-300v100h-100v300h100v100zM500 400h-300v100h-100v300h100v100h300v-100h100v-300h-100v-100z" />
    <glyph glyph-name="ampersand" unicode="&#x26;" 
d="M200 0v100h-100v300h100v100h-100v300h100v100h400v-100h100v-200h-200v200h-200v-300h400v-500h-500zM300 100h200v300h-200v-300z" />
    <glyph glyph-name="quotesingle" unicode="'" horiz-adv-x="500" 
d="M200 700v200h200v-200h-100v-100h-200v100h100z" />
    <glyph glyph-name="parenleft" unicode="(" horiz-adv-x="600" 
d="M500 900v-100h-100v-100h-100v-500h100v-100h100v-100h-200v100h-100v100h-100v500h100v100h100v100h200z" />
    <glyph glyph-name="parenright" unicode=")" horiz-adv-x="600" 
d="M300 900v-100h100v-100h100v-500h-100v-100h-100v-100h-200v100h100v100h100v500h-100v100h-100v100h200z" />
    <glyph glyph-name="asterisk" unicode="*" horiz-adv-x="1000" 
d="M100 400v100h200v100h-100v100h200v-100h200v100h200v-100h-100v-100h200v-100h-200v-100h100v-100h-200v100h-200v-100h-200v100h100v100h-200z" />
    <glyph glyph-name="plus" unicode="+" 
d="M100 400v100h200v200h200v-200h200v-100h-200v-200h-200v200h-200z" />
    <glyph glyph-name="comma" unicode="," horiz-adv-x="500" 
d="M200 0v200h200v-200h-100v-100h-200v100h100z" />
    <glyph glyph-name="hyphen" unicode="-" horiz-adv-x="600" 
d="M100 500h400v-100h-400v100z" />
    <glyph glyph-name="period" unicode="." horiz-adv-x="400" 
d="M100 0v200h200v-200h-200z" />
    <glyph glyph-name="slash" unicode="/" horiz-adv-x="600" 
d="M300 300v-300h-200v300h100v300h100v300h200v-300h-100v-300h-100z" />
    <glyph glyph-name="zero" unicode="0" 
d="M200 0v100h-100v700h100v100h400v-100h100v-700h-100v-100h-400zM300 500h100v100h100v200h-200v-300zM300 100h200v300h-100v-100h-100v-200z" />
    <glyph glyph-name="one" unicode="1" horiz-adv-x="600" 
d="M100 0v100h100v600h-100v100h100v100h200v-800h100v-100h-400z" />
    <glyph glyph-name="two" unicode="2" 
d="M100 0v200h100v100h100v100h100v100h100v300h-200v-200h-200v200h100v100h400v-100h100v-300h-100v-100h-100v-100h-100v-100h-100v-100h400v-100h-600z" />
    <glyph glyph-name="three" unicode="3" 
d="M200 100h-100v200h200v-200h200v300h-200v100h200v300h-200v-200h-200v200h100v100h400v-100h100v-300h-100v-100h100v-300h-100v-100h-400v100z" />
    <glyph glyph-name="four" unicode="4" 
d="M300 300h200v300h-100v-100h-100v-200zM500 0v200h-400v300h100v100h100v100h100v100h100v100h200v-900h-200z" />
    <glyph glyph-name="five" unicode="5" 
d="M200 100h-100v200h200v-200h200v400h-400v400h600v-100h-400v-200h300v-100h100v-400h-100v-100h-400v100z" />
    <glyph glyph-name="six" unicode="6" 
d="M300 400v-300h200v300h-200zM600 500v-100h100v-300h-100v-100h-400v100h-100v700h100v100h400v-100h100v-200h-200v200h-200v-300h300z" />
    <glyph glyph-name="seven" unicode="7" 
d="M300 0v400h100v200h100v200h-400v100h600v-300h-100v-200h-100v-400h-200z" />
    <glyph glyph-name="eight" unicode="8" 
d="M500 400h-200v-300h200v300zM600 900v-100h100v-300h-100v-100h100v-300h-100v-100h-400v100h-100v300h100v100h-100v300h100v100h400zM300 500h200v300h-200v-300z" />
    <glyph glyph-name="nine" unicode="9" 
d="M500 500v300h-200v-300h200zM200 400v100h-100v300h100v100h400v-100h100v-700h-100v-100h-400v100h-100v200h200v-200h200v300h-300z" />
    <glyph glyph-name="colon" unicode=":" horiz-adv-x="400" 
d="M100 0v200h200v-200h-200zM100 500v200h200v-200h-200z" />
    <glyph glyph-name="semicolon" unicode=";" horiz-adv-x="500" 
d="M200 0v200h200v-200h-100v-100h-200v100h100zM200 500v200h200v-200h-200z" />
    <glyph glyph-name="less" unicode="&#x3c;" horiz-adv-x="700" 
d="M500 200h100v-100h-200v100h-100v100h-100v100h-100v100h100v100h100v100h100v100h200v-100h-100v-100h-100v-100h-100v-100h100v-100h100v-100z" />
    <glyph glyph-name="equal" unicode="=" 
d="M100 600h600v-100h-600v100zM100 400h600v-100h-600v100z" />
    <glyph glyph-name="greater" unicode="&#x3e;" horiz-adv-x="700" 
d="M200 300h100v100h100v100h-100v100h-100v100h-100v100h200v-100h100v-100h100v-100h100v-100h-100v-100h-100v-100h-100v-100h-200v100h100v100z" />
    <glyph glyph-name="question" unicode="?" 
d="M300 400h100v100h100v300h-200v-200h-200v200h100v100h400v-100h100v-300h-100v-100h-100v-100h-200v100zM300 200h200v-200h-200v200z" />
    <glyph glyph-name="at" unicode="@" horiz-adv-x="1000" 
d="M600 300h100v300h-100v-300zM900 100v-100h-700v100h-100v700h100v100h600v-100h100v-600h-400v100h-100v300h100v100h200v100h-400v-700h600z" />
    <glyph glyph-name="A" unicode="A" 
d="M100 0v800h100v100h400v-100h100v-800h-200v300h-200v-300h-200zM300 400h200v400h-200v-400z" />
    <glyph glyph-name="B" unicode="B" 
d="M100 0v900h500v-100h100v-300h-100v-100h100v-300h-100v-100h-500zM300 500h200v300h-200v-300zM300 100h200v300h-200v-300z" />
    <glyph glyph-name="C" unicode="C" 
d="M500 300h200v-200h-100v-100h-400v100h-100v700h100v100h400v-100h100v-200h-200v200h-200v-700h200v200z" />
    <glyph glyph-name="D" unicode="D" 
d="M100 0v900h500v-100h100v-700h-100v-100h-500zM300 100h200v700h-200v-700z" />
    <glyph glyph-name="E" unicode="E" 
d="M100 0v900h600v-100h-400v-300h300v-100h-300v-300h400v-100h-600z" />
    <glyph glyph-name="F" unicode="F" 
d="M100 0v900h600v-100h-400v-300h300v-100h-300v-400h-200z" />
    <glyph glyph-name="G" unicode="G" 
d="M500 400h-100v100h300v-400h-100v-100h-400v100h-100v700h100v100h400v-100h100v-200h-200v200h-200v-700h200v300z" />
    <glyph glyph-name="H" unicode="H" 
d="M100 0v900h200v-400h200v400h200v-900h-200v400h-200v-400h-200z" />
    <glyph glyph-name="I" unicode="I" horiz-adv-x="600" 
d="M100 0v100h100v700h-100v100h400v-100h-100v-700h100v-100h-400z" />
    <glyph glyph-name="J" unicode="J" 
d="M200 100h-100v200h200v-200h200v700h-100v100h300v-800h-100v-100h-400v100z" />
    <glyph glyph-name="K" unicode="K" 
d="M100 0v900h200v-400h100v100h100v300h200v-300h-100v-100h-100v-100h100v-100h100v-300h-200v300h-100v100h-100v-400h-200z" />
    <glyph glyph-name="L" unicode="L" 
d="M300 900v-800h400v-100h-600v900h200z" />
    <glyph glyph-name="M" unicode="M" horiz-adv-x="900" 
d="M100 0v900h100v-100h100v-100h100v-100h100v100h100v100h100v100h100v-900h-200v500h-100v-100h-100v100h-100v-500h-200z" />
    <glyph glyph-name="N" unicode="N" 
d="M100 0v900h200v-200h100v-100h100v300h200v-900h-200v400h-100v100h-100v-500h-200z" />
    <glyph glyph-name="O" unicode="O" 
d="M200 0v100h-100v700h100v100h400v-100h100v-700h-100v-100h-400zM300 100h200v700h-200v-700z" />
    <glyph glyph-name="P" unicode="P" 
d="M100 0v900h500v-100h100v-300h-100v-100h-300v-400h-200zM300 500h200v300h-200v-300z" />
    <glyph glyph-name="Q" unicode="Q" 
d="M200 0v100h-100v700h100v100h400v-100h100v-700h-100v-200h100v-100h-200v100h-100v100h-200zM300 100h200v700h-200v-700z" />
    <glyph glyph-name="R" unicode="R" 
d="M100 0v900h500v-100h100v-300h-100v-100h100v-400h-200v400h-200v-400h-200zM300 500h200v300h-200v-300z" />
    <glyph glyph-name="S" unicode="S" 
d="M200 100h-100v200h200v-200h200v300h-300v100h-100v300h100v100h400v-100h100v-200h-200v200h-200v-300h300v-100h100v-300h-100v-100h-400v100z" />
    <glyph glyph-name="T" unicode="T" 
d="M300 0v800h-200v100h600v-100h-200v-800h-200z" />
    <glyph glyph-name="U" unicode="U" 
d="M500 900h200v-800h-100v-100h-400v100h-100v800h200v-800h200v800z" />
    <glyph glyph-name="V" unicode="V" 
d="M300 0v100h-100v100h-100v700h200v-700h200v700h200v-700h-100v-100h-100v-100h-200z" />
    <glyph glyph-name="W" unicode="W" horiz-adv-x="900" 
d="M500 200h100v700h200v-700h-100v-200h-200v200zM500 200h-100v500h100v-500zM200 0v200h-100v700h200v-700h100v-200h-200z" />
    <glyph glyph-name="X" unicode="X" 
d="M100 0v300h100v100h100v100h-100v100h-100v300h200v-300h200v300h200v-300h-100v-100h-100v-100h100v-100h100v-300h-200v300h-200v-300h-200z" />
    <glyph glyph-name="Y" unicode="Y" 
d="M300 0v400h-100v100h-100v400h200v-400h200v400h200v-400h-100v-100h-100v-400h-200z" />
    <glyph glyph-name="Z" unicode="Z" 
d="M100 0v300h100v100h100v100h100v100h100v200h-400v100h600v-300h-100v-100h-100v-100h-100v-100h-100v-200h400v-100h-600z" />
    <glyph glyph-name="bracketleft" unicode="[" horiz-adv-x="600" 
d="M100 0v900h400v-100h-200v-700h200v-100h-400z" />
    <glyph glyph-name="backslash" unicode="\" horiz-adv-x="600" 
d="M200 300v300h-100v300h200v-300h100v-300h100v-300h-200v300h-100z" />
    <glyph glyph-name="bracketright" unicode="]" horiz-adv-x="600" 
d="M100 0v100h200v700h-200v100h400v-900h-400z" />
    <glyph glyph-name="asciicircum" unicode="^" 
d="M500 900v-100h100v-100h100v-100h-200v100h-200v-100h-200v100h100v100h100v100h200z" />
    <glyph glyph-name="underscore" unicode="_" horiz-adv-x="400" 
d="M0 -100h400v-100h-400v100z" />
    <glyph glyph-name="grave" unicode="`" horiz-adv-x="500" 
d="M400 800v-100h-200v100h-100v100h200v-100h100z" />
    <glyph glyph-name="a" unicode="a" 
d="M200 0v100h-100v200h100v100h300v200h-200v-100h-200v100h100v100h400v-100h100v-600h-500zM300 100h200v200h-200v-200z" />
    <glyph glyph-name="b" unicode="b" 
d="M300 900v-200h300v-100h100v-500h-100v-100h-500v900h200zM300 100h200v500h-200v-500z" />
    <glyph glyph-name="c" unicode="c" 
d="M500 300h200v-200h-100v-100h-400v100h-100v500h100v100h400v-100h100v-200h-200v200h-200v-500h200v200z" />
    <glyph glyph-name="d" unicode="d" 
d="M700 900v-900h-500v100h-100v500h100v100h300v200h200zM500 600h-200v-500h200v500z" />
    <glyph glyph-name="e" unicode="e" 
d="M500 600h-200v-200h200v200zM300 300v-200h200v100h200v-100h-100v-100h-400v100h-100v500h100v100h400v-100h100v-300h-400z" />
    <glyph glyph-name="f" unicode="f" horiz-adv-x="700" 
d="M200 0v500h-100v100h100v200h100v100h300v-100h-200v-200h200v-100h-200v-500h-200z" />
    <glyph glyph-name="g" unicode="g" 
d="M300 400h200v200h-200v-200zM300 -100h200v200h-200v-200zM200 -200v100h-100v200h100v100h-100v100h100v100h-100v200h100v100h600v-100h-100v-200h-100v-100h-300v-100h300v-100h100v-200h-100v-100h-400z" />
    <glyph glyph-name="h" unicode="h" 
d="M300 0h-200v900h200v-200h300v-100h100v-600h-200v600h-200v-600z" />
    <glyph glyph-name="i" unicode="i" horiz-adv-x="600" 
d="M100 0v100h100v500h-100v100h300v-600h100v-100h-400zM200 800v200h200v-200h-200z" />
    <glyph glyph-name="j" unicode="j" 
d="M200 -100h-100v200h200v-200h200v700h-100v100h300v-800h-100v-100h-400v100zM500 800v200h200v-200h-200z" />
    <glyph glyph-name="k" unicode="k" 
d="M100 0v900h200v-500h100v100h100v200h200v-200h-100v-100h-100v-100h100v-100h100v-200h-200v200h-100v100h-100v-300h-200z" />
    <glyph glyph-name="l" unicode="l" horiz-adv-x="600" 
d="M100 0v100h100v700h-100v100h300v-800h100v-100h-400z" />
    <glyph glyph-name="m" unicode="m" horiz-adv-x="1000" 
d="M100 0v700h400v-100h100v-600h-200v600h-100v-600h-200zM700 600h-100v100h200v-100h100v-600h-200v600z" />
    <glyph glyph-name="n" unicode="n" 
d="M300 0h-200v700h500v-100h100v-600h-200v600h-200v-600z" />
    <glyph glyph-name="o" unicode="o" 
d="M200 0v100h-100v500h100v100h400v-100h100v-500h-100v-100h-400zM300 100h200v500h-200v-500z" />
    <glyph glyph-name="p" unicode="p" 
d="M100 -200v900h500v-100h100v-500h-100v-100h-300v-200h-200zM300 100h200v500h-200v-500z" />
    <glyph glyph-name="q" unicode="q" 
d="M500 -200v200h-300v100h-100v500h100v100h500v-900h-200zM500 600h-200v-500h200v500z" />
    <glyph glyph-name="r" unicode="r" 
d="M300 0h-200v700h500v-100h100v-200h-200v200h-200v-600z" />
    <glyph glyph-name="s" unicode="s" 
d="M200 100h-100v100h200v-100h200v200h-300v100h-100v200h100v100h400v-100h100v-100h-200v100h-200v-200h300v-100h100v-200h-100v-100h-400v100z" />
    <glyph glyph-name="t" unicode="t" horiz-adv-x="700" 
d="M400 800v-100h200v-100h-200v-500h200v-100h-300v100h-100v500h-100v100h100v100h200z" />
    <glyph glyph-name="u" unicode="u" 
d="M500 700h200v-700h-500v100h-100v600h200v-600h200v600z" />
    <glyph glyph-name="v" unicode="v" 
d="M300 0v100h-100v100h-100v500h200v-500h200v500h200v-500h-100v-100h-100v-100h-200z" />
    <glyph glyph-name="w" unicode="w" horiz-adv-x="900" 
d="M500 200h100v500h200v-500h-100v-200h-200v200zM500 200h-100v400h100v-400zM200 0v200h-100v500h200v-500h100v-200h-200z" />
    <glyph glyph-name="x" unicode="x" 
d="M100 0v200h100v100h100v100h-100v100h-100v200h200v-200h200v200h200v-200h-100v-100h-100v-100h100v-100h100v-200h-200v200h-200v-200h-200z" />
    <glyph glyph-name="y" unicode="y" 
d="M200 -100h-100v100h200v-100h200v200h-300v100h-100v500h200v-500h200v500h200v-800h-100v-100h-400v100z" />
    <glyph glyph-name="z" unicode="z" 
d="M100 0v200h100v100h100v100h100v100h100v100h-400v100h600v-200h-100v-100h-100v-100h-100v-100h-100v-100h400v-100h-600z" />
    <glyph glyph-name="braceleft" unicode="{" 
d="M700 900v-100h-200v-300h-100v-100h100v-300h200v-100h-300v100h-100v300h-200v100h200v300h100v100h300z" />
    <glyph glyph-name="bar" unicode="|" horiz-adv-x="400" 
d="M100 0v900h200v-900h-200z" />
    <glyph glyph-name="braceright" unicode="}" 
d="M400 900v-100h100v-300h200v-100h-200v-300h-100v-100h-300v100h200v300h100v100h-100v300h-200v100h300z" />
    <glyph glyph-name="asciitilde" unicode="~" horiz-adv-x="900" 
d="M100 700v100h100v100h300v-100h100v100h200v-100h-100v-100h-300v100h-100v-100h-200z" />
    <glyph glyph-name="exclamdown" unicode="&#xa1;" horiz-adv-x="400" 
d="M300.061 699v-199.878h-199.877v199.878h199.877zM300.061 399.184v-599.635h-199.877v599.635h199.877z" />
    <glyph glyph-name="cent" unicode="&#xa2;" 
d="M300 0v200h-100v100h-100v300h100v100h100v200h200v-200h100v-100h100v-100h-200v100h-200v-300h200v100h200v-100h-100v-100h-100v-200h-200z" />
    <glyph glyph-name="sterling" unicode="&#xa3;" horiz-adv-x="900" 
d="M100 0v100h100v300h-100v100h100v300h100v100h400v-100h100v-200h-200v200h-200v-300h200v-100h-200v-300h200v200h200v-200h-100v-100h-600z" />
    <glyph glyph-name="currency" unicode="&#xa4;" horiz-adv-x="1100" 
d="M200 300v600h100v-100h100v-100h100v-100h100v100h100v100h100v100h100v-600h100v-100h-100v-200h-200v200h-300v-200h-200v200h-100v100h100zM700 300v200h-100v-100h-100v100h-100v-200h300z" />
    <glyph glyph-name="yen" unicode="&#xa5;" 
d="M300 400v100h-100v100h-100v300h200v-300h200v300h200v-300h-100v-100h-100v-100h200v-100h-200v-100h200v-100h-200v-100h-200v100h-200v100h200v100h-200v100h200z" />
    <glyph glyph-name="brokenbar" unicode="&#xa6;" horiz-adv-x="400" 
d="M300 400v-400h-200v400h200zM100 500v400h200v-400h-200z" />
    <glyph glyph-name="dieresis" unicode="&#xa8;" 
d="M100 700v200h200v-200h-200zM500 700v200h200v-200h-200z" />
    <glyph glyph-name="copyright" unicode="&#xa9;" horiz-adv-x="1000" 
d="M600 600h-200v100h200v-100zM200 700v100h100v-100h-100zM700 100v100h100v-100h-100zM600 300v100h100v-100h-100zM400 200v100h200v-100h-200zM400 300h-100v300h100v-300zM200 200h-100v500h100v-500zM300 100h400v-100h-400v100zM300 100h-100v100h100v-100zM800 700
h100v-500h-100v500zM700 800h-400v100h400v-100zM700 800h100v-100h-100v100zM600 600h100v-100h-100v100z" />
    <glyph glyph-name="guillemotleft" unicode="&#xab;" horiz-adv-x="1000" 
d="M500 200h-200v100h-100v100h-100v100h100v100h100v100h200v-100h-100v-100h-100v-100h100v-100h100v-100zM900 200h-200v100h-100v100h-100v100h100v100h100v100h200v-100h-100v-100h-100v-100h100v-100h100v-100z" />
    <glyph glyph-name="logicalnot" unicode="&#xac;" 
d="M100 400v100h600v-300h-200v200h-400z" />
    <glyph glyph-name="registered" unicode="&#xae;" horiz-adv-x="1000" 
d="M800 700h-100v100h100v-100zM300 700h-100v100h100v-100zM600 600h100v-200h-100v200zM600 300h-200v-100h-100v500h300v-100h-200v-200h200v-100zM700 200h100v-100h-100v100zM700 200h-100v100h100v-100zM200 200h-100v500h100v-500zM300 100h400v-100h-400v100z
M300 100h-100v100h100v-100zM700 800h-400v100h400v-100zM800 700h100v-500h-100v500z" />
    <glyph glyph-name="degree" unicode="&#xb0;" horiz-adv-x="600" 
d="M400 800h-200v100h200v-100zM200 600h200v-100h-200v100zM200 600h-100v200h100v-200zM400 800h100v-200h-100v200z" />
    <glyph glyph-name="plusminus" unicode="&#xb1;" 
d="M100 400v100h200v200h200v-200h200v-100h-200v-200h-200v200h-200zM100 0v100h600v-100h-600z" />
    <glyph glyph-name="acute" unicode="&#xb4;" horiz-adv-x="500" 
d="M300 800v-100h-200v100h100v100h200v-100h-100z" />
    <glyph glyph-name="uni00B5" unicode="&#xb5;" 
d="M100 -200v900h200v-600h200v-100h-200v-200h-200zM700 100h100v-100h-200v100h-100v600h200v-600z" />
    <glyph glyph-name="paragraph" unicode="&#xb6;" horiz-adv-x="1000" 
d="M400 0v400h-200v100h-100v300h100v100h700v-900h-200v800h-100v-800h-200z" />
    <glyph glyph-name="periodcentered" unicode="&#xb7;" horiz-adv-x="400" 
d="M100 400v200h200v-200h-200z" />
    <glyph glyph-name="cedilla" unicode="&#xb8;" horiz-adv-x="600" 
d="M400 -200v-100h-300v100h200v100h-100v100h200v-100h100v-100h-100z" />
    <glyph glyph-name="guillemotright" unicode="&#xbb;" horiz-adv-x="1000" 
d="M100 300h100v100h100v100h-100v100h-100v100h200v-100h100v-100h100v-100h-100v-100h-100v-100h-200v100zM500 300h100v100h100v100h-100v100h-100v100h200v-100h100v-100h100v-100h-100v-100h-100v-100h-200v100z" />
    <glyph glyph-name="questiondown" unicode="&#xbf;" 
d="M500.146 300.195h-99.9512v-99.9512h-99.9512v-299.854h199.902v199.902h199.902v-199.902h-99.9512v-99.9512h-399.805v99.9512h-99.9512v299.854h99.9512v99.9512h99.9512v99.9512h199.902v-99.9512zM500.146 500.098h-199.902v199.902h199.902v-199.902z" />
    <glyph glyph-name="Agrave" unicode="&#xc0;" 
d="M100 0v800h100v100h400v-100h100v-800h-200v300h-200v-300h-200zM300 400h200v400h-200v-400zM500 1100v-100h-200v100h-100v100h200v-100h100z" />
    <glyph glyph-name="Aacute" unicode="&#xc1;" 
d="M100 0v800h100v100h400v-100h100v-800h-200v300h-200v-300h-200zM300 400h200v400h-200v-400zM500 1100v-100h-200v100h100v100h200v-100h-100z" />
    <glyph glyph-name="Acircumflex" unicode="&#xc2;" 
d="M100 0v800h100v100h400v-100h100v-800h-200v300h-200v-300h-200zM300 400h200v400h-200v-400zM500 1300v-100h100v-100h100v-100h-200v100h-200v-100h-200v100h100v100h100v100h200z" />
    <glyph glyph-name="Atilde" unicode="&#xc3;" 
d="M100 0v800h100v100h400v-100h100v-800h-200v300h-200v-300h-200zM300 400h200v400h-200v-400zM100 1000v100h100v100h300v-100h100v100h200v-100h-100v-100h-300v100h-100v-100h-200z" />
    <glyph glyph-name="Adieresis" unicode="&#xc4;" 
d="M100 0v800h100v100h400v-100h100v-800h-200v300h-200v-300h-200zM300 400h200v400h-200v-400zM100 1000v200h200v-200h-200zM500 1000v200h200v-200h-200z" />
    <glyph glyph-name="Aring" unicode="&#xc5;" 
d="M100 0v800h100v100h400v-100h100v-800h-200v300h-200v-300h-200zM300 400h200v400h-200v-400zM700 1100h-100v-100h-400v100h-100v100h100v100h400v-100h100v-100zM300 1100h200v100h-200v-100z" />
    <glyph glyph-name="AE" unicode="&#xc6;" horiz-adv-x="1200" 
d="M500 300h-200v-300h-200v800h100v100h900v-100h-400v-300h300v-100h-300v-300h400v-100h-600v300zM500 800h-200v-400h200v400z" />
    <glyph glyph-name="Ccedilla" unicode="&#xc7;" 
d="M300 0h-100v100h-100v700h100v100h400v-100h100v-200h-200v200h-200v-700h200v200h200v-200h-100v-100h-100v-100h100v-100h-100v-100h-300v100h200v100h-100v100z" />
    <glyph glyph-name="Egrave" unicode="&#xc8;" 
d="M100 0v900h600v-100h-400v-300h300v-100h-300v-300h400v-100h-600zM500 1100v-100h-200v100h-100v100h200v-100h100z" />
    <glyph glyph-name="Eacute" unicode="&#xc9;" 
d="M100 0v900h600v-100h-400v-300h300v-100h-300v-300h400v-100h-600zM500 1100v-100h-200v100h100v100h200v-100h-100z" />
    <glyph glyph-name="Ecircumflex" unicode="&#xca;" 
d="M100 0v900h600v-100h-400v-300h300v-100h-300v-300h400v-100h-600zM500 1300v-100h100v-100h100v-100h-200v100h-200v-100h-200v100h100v100h100v100h200z" />
    <glyph glyph-name="Edieresis" unicode="&#xcb;" 
d="M100 0v900h600v-100h-400v-300h300v-100h-300v-300h400v-100h-600zM100 1000v200h200v-200h-200zM500 1000v200h200v-200h-200z" />
    <glyph glyph-name="Igrave" unicode="&#xcc;" horiz-adv-x="600" 
d="M100 0v100h100v700h-100v100h400v-100h-100v-700h100v-100h-400zM400 1100v-100h-200v100h-100v100h200v-100h100z" />
    <glyph glyph-name="Iacute" unicode="&#xcd;" horiz-adv-x="600" 
d="M100 0v100h100v700h-100v100h400v-100h-100v-700h100v-100h-400zM400 1100v-100h-200v100h100v100h200v-100h-100z" />
    <glyph glyph-name="Icircumflex" unicode="&#xce;" horiz-adv-x="600" 
d="M100 0v100h100v700h-100v100h400v-100h-100v-700h100v-100h-400zM400 1300v-100h100v-100h100v-100h-200v100h-200v-100h-200v100h100v100h100v100h200z" />
    <glyph glyph-name="Idieresis" unicode="&#xcf;" horiz-adv-x="600" 
d="M100 0v100h100v700h-100v100h400v-100h-100v-700h100v-100h-400zM0 1000v200h200v-200h-200zM400 1000v200h200v-200h-200z" />
    <glyph glyph-name="Eth" unicode="&#xd0;" 
d="M300 400v-300h200v700h-200v-300h100v-100h-100zM100 500v400h500v-100h100v-700h-100v-100h-500v400h-100v100h100z" />
    <glyph glyph-name="Ntilde" unicode="&#xd1;" 
d="M100 0v900h200v-200h100v-100h100v300h200v-900h-200v400h-100v100h-100v-500h-200zM100 1000v100h100v100h300v-100h100v100h200v-100h-100v-100h-300v100h-100v-100h-200z" />
    <glyph glyph-name="Ograve" unicode="&#xd2;" 
d="M200 0v100h-100v700h100v100h400v-100h100v-700h-100v-100h-400zM300 100h200v700h-200v-700zM500 1100v-100h-200v100h-100v100h200v-100h100z" />
    <glyph glyph-name="Oacute" unicode="&#xd3;" 
d="M200 0v100h-100v700h100v100h400v-100h100v-700h-100v-100h-400zM300 100h200v700h-200v-700zM500 1100v-100h-200v100h100v100h200v-100h-100z" />
    <glyph glyph-name="Ocircumflex" unicode="&#xd4;" 
d="M200 0v100h-100v700h100v100h400v-100h100v-700h-100v-100h-400zM300 100h200v700h-200v-700zM500 1300v-100h100v-100h100v-100h-200v100h-200v-100h-200v100h100v100h100v100h200z" />
    <glyph glyph-name="Otilde" unicode="&#xd5;" 
d="M200 0v100h-100v700h100v100h400v-100h100v-700h-100v-100h-400zM300 100h200v700h-200v-700zM100 1000v100h100v100h300v-100h100v100h200v-100h-100v-100h-300v100h-100v-100h-200z" />
    <glyph glyph-name="Odieresis" unicode="&#xd6;" 
d="M200 0v100h-100v700h100v100h400v-100h100v-700h-100v-100h-400zM300 100h200v700h-200v-700zM100 1000v200h200v-200h-200zM500 1000v200h200v-200h-200z" />
    <glyph glyph-name="multiply" unicode="&#xd7;" 
d="M100 100v100h100v100h100v100h-100v100h-100v100h200v-100h200v100h200v-100h-100v-100h-100v-100h100v-100h100v-100h-200v100h-200v-100h-200z" />
    <glyph glyph-name="Oslash" unicode="&#xd8;" 
d="M100 100v-100h-100v200h100v600h100v100h400v-100h100v100h100v-200h-100v-600h-100v-100h-400v100h-100zM300 500h100v100h100v200h-200v-300zM300 100h200v300h-100v-100h-100v-200z" />
    <glyph glyph-name="Ugrave" unicode="&#xd9;" 
d="M500 900h200v-800h-100v-100h-400v100h-100v800h200v-800h200v800zM500 1100v-100h-200v100h-100v100h200v-100h100z" />
    <glyph glyph-name="Uacute" unicode="&#xda;" 
d="M500 900h200v-800h-100v-100h-400v100h-100v800h200v-800h200v800zM500 1100v-100h-200v100h100v100h200v-100h-100z" />
    <glyph glyph-name="Ucircumflex" unicode="&#xdb;" 
d="M500 900h200v-800h-100v-100h-400v100h-100v800h200v-800h200v800zM500 1300v-100h100v-100h100v-100h-200v100h-200v-100h-200v100h100v100h100v100h200z" />
    <glyph glyph-name="Udieresis" unicode="&#xdc;" 
d="M500 900h200v-800h-100v-100h-400v100h-100v800h200v-800h200v800zM100 1000v200h200v-200h-200zM500 1000v200h200v-200h-200z" />
    <glyph glyph-name="Yacute" unicode="&#xdd;" 
d="M300 0v400h-100v100h-100v400h200v-400h200v400h200v-400h-100v-100h-100v-400h-200zM500 1100v-100h-200v100h100v100h200v-100h-100z" />
    <glyph glyph-name="Thorn" unicode="&#xde;" 
d="M500 600h-200v-300h200v300zM100 900h200v-200h300v-100h100v-300h-100v-100h-300v-200h-200v900z" />
    <glyph glyph-name="germandbls" unicode="&#xdf;" 
d="M200 900h400v-100h100v-300h-100v-100h100v-300h-100v-100h-200v100h100v300h-100v100h100v300h-200v-800h-200v800h100v100z" />
    <glyph glyph-name="agrave" unicode="&#xe0;" 
d="M200 0v100h-100v200h100v100h300v200h-200v-100h-200v100h100v100h400v-100h100v-600h-500zM300 100h200v200h-200v-200zM500 900v-100h-200v100h-100v100h200v-100h100z" />
    <glyph glyph-name="aacute" unicode="&#xe1;" 
d="M200 0v100h-100v200h100v100h300v200h-200v-100h-200v100h100v100h400v-100h100v-600h-500zM300 100h200v200h-200v-200zM500 900v-100h-200v100h100v100h200v-100h-100z" />
    <glyph glyph-name="acircumflex" unicode="&#xe2;" 
d="M200 0v100h-100v200h100v100h300v200h-200v-100h-200v100h100v100h400v-100h100v-600h-500zM300 100h200v200h-200v-200zM500 1100v-100h100v-100h100v-100h-200v100h-200v-100h-200v100h100v100h100v100h200z" />
    <glyph glyph-name="atilde" unicode="&#xe3;" 
d="M200 0v100h-100v200h100v100h300v200h-200v-100h-200v100h100v100h400v-100h100v-600h-500zM300 100h200v200h-200v-200zM100 800v100h100v100h300v-100h100v100h200v-100h-100v-100h-300v100h-100v-100h-200z" />
    <glyph glyph-name="adieresis" unicode="&#xe4;" 
d="M200 0v100h-100v200h100v100h300v200h-200v-100h-200v100h100v100h400v-100h100v-600h-500zM300 100h200v200h-200v-200zM100 800v200h200v-200h-200zM500 800v200h200v-200h-200z" />
    <glyph glyph-name="aring" unicode="&#xe5;" 
d="M200 0v100h-100v200h100v100h300v200h-200v-100h-200v100h100v100h400v-100h100v-600h-500zM300 100h200v200h-200v-200zM700 900h-100v-100h-400v100h-100v100h100v100h400v-100h100v-100zM300 900h200v100h-200v-100z" />
    <glyph glyph-name="ae" unicode="&#xe6;" horiz-adv-x="1200" 
d="M200 0v100h-100v200h100v100h300v200h-200v-100h-200v100h100v100h800v-100h100v-300h-400v-200h200v100h200v-100h-100v-100h-800zM700 400h200v200h-200v-200zM500 300h-200v-200h200v200z" />
    <glyph glyph-name="ccedilla" unicode="&#xe7;" 
d="M300 0h-100v100h-100v500h100v100h400v-100h100v-200h-200v200h-200v-500h200v200h200v-200h-100v-100h-100v-100h100v-100h-100v-100h-300v100h200v100h-100v100z" />
    <glyph glyph-name="egrave" unicode="&#xe8;" 
d="M500 600h-200v-200h200v200zM300 300v-200h200v100h200v-100h-100v-100h-400v100h-100v500h100v100h400v-100h100v-300h-400zM500 900v-100h-200v100h-100v100h200v-100h100z" />
    <glyph glyph-name="eacute" unicode="&#xe9;" 
d="M500 600h-200v-200h200v200zM300 300v-200h200v100h200v-100h-100v-100h-400v100h-100v500h100v100h400v-100h100v-300h-400zM500 900v-100h-200v100h100v100h200v-100h-100z" />
    <glyph glyph-name="ecircumflex" unicode="&#xea;" 
d="M500 600h-200v-200h200v200zM300 300v-200h200v100h200v-100h-100v-100h-400v100h-100v500h100v100h400v-100h100v-300h-400zM500 1100v-100h100v-100h100v-100h-200v100h-200v-100h-200v100h100v100h100v100h200z" />
    <glyph glyph-name="edieresis" unicode="&#xeb;" 
d="M500 600h-200v-200h200v200zM300 300v-200h200v100h200v-100h-100v-100h-400v100h-100v500h100v100h400v-100h100v-300h-400zM100 800v200h200v-200h-200zM500 800v200h200v-200h-200z" />
    <glyph glyph-name="igrave" unicode="&#xec;" horiz-adv-x="600" 
d="M100 0v100h100v500h-100v100h300v-600h100v-100h-400zM400 900v-100h-200v100h-100v100h200v-100h100z" />
    <glyph glyph-name="iacute" unicode="&#xed;" horiz-adv-x="600" 
d="M100 0v100h100v500h-100v100h300v-600h100v-100h-400zM400 900v-100h-200v100h100v100h200v-100h-100z" />
    <glyph glyph-name="icircumflex" unicode="&#xee;" horiz-adv-x="600" 
d="M100 0v100h100v500h-100v100h300v-600h100v-100h-400zM400 1100v-100h100v-100h100v-100h-200v100h-200v-100h-200v100h100v100h100v100h200z" />
    <glyph glyph-name="idieresis" unicode="&#xef;" horiz-adv-x="600" 
d="M100 0v100h100v500h-100v100h300v-600h100v-100h-400zM0 800v200h200v-200h-200zM400 800v200h200v-200h-200z" />
    <glyph glyph-name="eth" unicode="&#xf0;" 
d="M500 100v400h-200v-400h200zM200 0v100h-100v400h100v100h300v100h-200v100h200v100h200v-100h100v-100h-100v-700h-500z" />
    <glyph glyph-name="ntilde" unicode="&#xf1;" 
d="M300 0h-200v700h500v-100h100v-600h-200v600h-200v-600zM100 800v100h100v100h300v-100h100v100h200v-100h-100v-100h-300v100h-100v-100h-200z" />
    <glyph glyph-name="ograve" unicode="&#xf2;" 
d="M200 0v100h-100v500h100v100h400v-100h100v-500h-100v-100h-400zM300 100h200v500h-200v-500zM500 900v-100h-200v100h-100v100h200v-100h100z" />
    <glyph glyph-name="oacute" unicode="&#xf3;" 
d="M200 0v100h-100v500h100v100h400v-100h100v-500h-100v-100h-400zM300 100h200v500h-200v-500zM500 900v-100h-200v100h100v100h200v-100h-100z" />
    <glyph glyph-name="ocircumflex" unicode="&#xf4;" 
d="M200 0v100h-100v500h100v100h400v-100h100v-500h-100v-100h-400zM300 100h200v500h-200v-500zM500 1100v-100h100v-100h100v-100h-200v100h-200v-100h-200v100h100v100h100v100h200z" />
    <glyph glyph-name="otilde" unicode="&#xf5;" 
d="M200 0v100h-100v500h100v100h400v-100h100v-500h-100v-100h-400zM300 100h200v500h-200v-500zM100 800v100h100v100h300v-100h100v100h200v-100h-100v-100h-300v100h-100v-100h-200z" />
    <glyph glyph-name="odieresis" unicode="&#xf6;" 
d="M200 0v100h-100v500h100v100h400v-100h100v-500h-100v-100h-400zM300 100h200v500h-200v-500zM100 800v200h200v-200h-200zM500 800v200h200v-200h-200z" />
    <glyph glyph-name="divide" unicode="&#xf7;" 
d="M100 500h600v-100h-600v100zM300 300h200v-200h-200v200zM300 800h200v-200h-200v200z" />
    <glyph glyph-name="oslash" unicode="&#xf8;" 
d="M100 0v-100h-100v200h100v500h100v100h500v100h100v-200h-100v-500h-100v-100h-500zM300 400h100v100h100v100h-200v-200zM300 100h200v200h-100v-100h-100v-100z" />
    <glyph glyph-name="ugrave" unicode="&#xf9;" 
d="M500 700h200v-700h-500v100h-100v600h200v-600h200v600zM500 900v-100h-200v100h-100v100h200v-100h100z" />
    <glyph glyph-name="uacute" unicode="&#xfa;" 
d="M500 700h200v-700h-500v100h-100v600h200v-600h200v600zM500 900v-100h-200v100h100v100h200v-100h-100z" />
    <glyph glyph-name="ucircumflex" unicode="&#xfb;" 
d="M500 700h200v-700h-500v100h-100v600h200v-600h200v600zM500 1100v-100h100v-100h100v-100h-200v100h-200v-100h-200v100h100v100h100v100h200z" />
    <glyph glyph-name="udieresis" unicode="&#xfc;" 
d="M500 700h200v-700h-500v100h-100v600h200v-600h200v600zM100 800v200h200v-200h-200zM500 800v200h200v-200h-200z" />
    <glyph glyph-name="yacute" unicode="&#xfd;" 
d="M200 -100h-100v100h200v-100h200v200h-300v100h-100v500h200v-500h200v500h200v-800h-100v-100h-400v100zM500 900v-100h-200v100h100v100h200v-100h-100z" />
    <glyph glyph-name="thorn" unicode="&#xfe;" 
d="M500 600h-200v-500h200v500zM100 900h200v-200h300v-100h100v-500h-100v-100h-300v-200h-200v1100z" />
    <glyph glyph-name="ydieresis" unicode="&#xff;" 
d="M200 -100h-100v100h200v-100h200v200h-300v100h-100v500h200v-500h200v500h200v-800h-100v-100h-400v100zM100 800v200h200v-200h-200zM500 800v200h200v-200h-200z" />
    <glyph glyph-name="Ccaron" unicode="&#x10c;" 
d="M500 300h200v-200h-100v-100h-400v100h-100v700h100v100h400v-100h100v-200h-200v200h-200v-700h200v200zM300 1000v100h-100v100h-100v100h200v-100h200v100h200v-100h-100v-100h-100v-100h-200z" />
    <glyph glyph-name="ccaron" unicode="&#x10d;" 
d="M500 300h200v-200h-100v-100h-400v100h-100v500h100v100h400v-100h100v-200h-200v200h-200v-500h200v200zM300 800v100h-100v100h-100v100h200v-100h200v100h200v-100h-100v-100h-100v-100h-200z" />
    <glyph glyph-name="Dcaron" unicode="&#x10e;" 
d="M100 0v900h500v-100h100v-700h-100v-100h-500zM300 100h200v700h-200v-700zM300 1000v100h-100v100h-100v100h200v-100h200v100h200v-100h-100v-100h-100v-100h-200z" />
    <glyph glyph-name="dcaron" unicode="&#x10f;" horiz-adv-x="1200" 
d="M700 900v-900h-500v100h-100v500h100v100h300v200h200zM500 600h-200v-500h200v500zM900 700v200h200v-200h-100v-100h-200v100h100z" />
    <glyph glyph-name="Ecaron" unicode="&#x11a;" 
d="M100 0v900h600v-100h-400v-300h300v-100h-300v-300h400v-100h-600zM300 1000v100h-100v100h-100v100h200v-100h200v100h200v-100h-100v-100h-100v-100h-200z" />
    <glyph glyph-name="ecaron" unicode="&#x11b;" 
d="M500 600h-200v-200h200v200zM300 300v-200h200v100h200v-100h-100v-100h-400v100h-100v500h100v100h400v-100h100v-300h-400zM300 800v100h-100v100h-100v100h200v-100h200v100h200v-100h-100v-100h-100v-100h-200z" />
    <glyph glyph-name="dotlessi" unicode="&#x131;" horiz-adv-x="600" 
d="M100 0v100h100v500h-100v100h300v-600h100v-100h-400z" />
    <glyph glyph-name="Ncaron" unicode="&#x147;" 
d="M100 0v900h200v-200h100v-100h100v300h200v-900h-200v400h-100v100h-100v-500h-200zM300 1000v100h-100v100h-100v100h200v-100h200v100h200v-100h-100v-100h-100v-100h-200z" />
    <glyph glyph-name="ncaron" unicode="&#x148;" 
d="M300 0h-200v700h500v-100h100v-600h-200v600h-200v-600zM300 800v100h-100v100h-100v100h200v-100h200v100h200v-100h-100v-100h-100v-100h-200z" />
    <glyph glyph-name="OE" unicode="&#x152;" horiz-adv-x="1200" 
d="M200 0v100h-100v700h100v100h900v-100h-400v-300h300v-100h-300v-300h400v-100h-900zM500 800h-200v-700h200v700z" />
    <glyph glyph-name="oe" unicode="&#x153;" horiz-adv-x="1200" 
d="M300 100h200v500h-200v-500zM900 600h-200v-200h200v200zM200 0v100h-100v500h100v100h800v-100h100v-300h-400v-200h200v100h200v-100h-100v-100h-800z" />
    <glyph glyph-name="Rcaron" unicode="&#x158;" 
d="M100 0v900h500v-100h100v-300h-100v-100h100v-400h-200v400h-200v-400h-200zM300 500h200v300h-200v-300zM300 1000v100h-100v100h-100v100h200v-100h200v100h200v-100h-100v-100h-100v-100h-200z" />
    <glyph glyph-name="rcaron" unicode="&#x159;" 
d="M300 0h-200v700h500v-100h100v-200h-200v200h-200v-600zM300 800v100h-100v100h-100v100h200v-100h200v100h200v-100h-100v-100h-100v-100h-200z" />
    <glyph glyph-name="Scaron" unicode="&#x160;" 
d="M200 100h-100v200h200v-200h200v300h-300v100h-100v300h100v100h400v-100h100v-200h-200v200h-200v-300h300v-100h100v-300h-100v-100h-400v100zM300 1000v100h-100v100h-100v100h200v-100h200v100h200v-100h-100v-100h-100v-100h-200z" />
    <glyph glyph-name="scaron" unicode="&#x161;" 
d="M200 100h-100v100h200v-100h200v200h-300v100h-100v200h100v100h400v-100h100v-100h-200v100h-200v-200h300v-100h100v-200h-100v-100h-400v100zM300 800v100h-100v100h-100v100h200v-100h200v100h200v-100h-100v-100h-100v-100h-200z" />
    <glyph glyph-name="Tcaron" unicode="&#x164;" 
d="M300 0v800h-200v100h600v-100h-200v-800h-200zM300 1000v100h-100v100h-100v100h200v-100h200v100h200v-100h-100v-100h-100v-100h-200z" />
    <glyph glyph-name="tcaron" unicode="&#x165;" horiz-adv-x="1100" 
d="M400 800v-100h200v-100h-200v-500h200v-100h-300v100h-100v500h-100v100h100v100h200zM800 700v200h200v-200h-100v-100h-200v100h100z" />
    <glyph glyph-name="Uring" unicode="&#x16e;" 
d="M500 900h200v-800h-100v-100h-400v100h-100v800h200v-800h200v800zM700 1100h-100v-100h-400v100h-100v100h100v100h400v-100h100v-100zM300 1100h200v100h-200v-100z" />
    <glyph glyph-name="uring" unicode="&#x16f;" 
d="M500 700h200v-700h-500v100h-100v600h200v-600h200v600zM700 900h-100v-100h-400v100h-100v100h100v100h400v-100h100v-100zM300 900h200v100h-200v-100z" />
    <glyph glyph-name="Ydieresis" unicode="&#x178;" 
d="M300 0v400h-100v100h-100v400h200v-400h200v400h200v-400h-100v-100h-100v-400h-200zM100 1000v200h200v-200h-200zM500 1000v200h200v-200h-200z" />
    <glyph glyph-name="Zcaron" unicode="&#x17d;" 
d="M100 0v300h100v100h100v100h100v100h100v200h-400v100h600v-300h-100v-100h-100v-100h-100v-100h-100v-200h400v-100h-600zM300 1000v100h-100v100h-100v100h200v-100h200v100h200v-100h-100v-100h-100v-100h-200z" />
    <glyph glyph-name="zcaron" unicode="&#x17e;" 
d="M100 0v200h100v100h100v100h100v100h100v100h-400v100h600v-200h-100v-100h-100v-100h-100v-100h-100v-100h400v-100h-600zM300 800v100h-100v100h-100v100h200v-100h200v100h200v-100h-100v-100h-100v-100h-200z" />
    <glyph glyph-name="florin" unicode="&#x192;" horiz-adv-x="700" 
d="M600 600v-100h-200v-600h-100v-100h-300v100h200v600h-100v100h100v200h100v100h300v-100h-200v-200h200z" />
    <glyph glyph-name="circumflex" unicode="&#x2c6;" 
d="M500 900v-100h100v-100h100v-100h-200v100h-200v-100h-200v100h100v100h100v100h200z" />
    <glyph glyph-name="caron" unicode="&#x2c7;" 
d="M300 600v100h-100v100h-100v100h200v-100h200v100h200v-100h-100v-100h-100v-100h-200z" />
    <glyph glyph-name="breve" unicode="&#x2d8;" 
d="M200 700v100h-100v100h200v-100h200v100h200v-100h-100v-100h-400z" />
    <glyph glyph-name="dotaccent" unicode="&#x2d9;" horiz-adv-x="400" 
d="M100 700v200h200v-200h-200z" />
    <glyph glyph-name="ring" unicode="&#x2da;" 
d="M700 700h-100v-100h-400v100h-100v100h100v100h400v-100h100v-100zM300 700h200v100h-200v-100z" />
    <glyph glyph-name="ogonek" unicode="&#x2db;" horiz-adv-x="600" 
d="M100 -200v100h100v100h200v-100h-100v-100h200v-100h-300v100h-100z" />
    <glyph glyph-name="tilde" unicode="&#x2dc;" horiz-adv-x="900" 
d="M100 700v100h100v100h300v-100h100v100h200v-100h-100v-100h-300v100h-100v-100h-200z" />
    <glyph glyph-name="hungarumlaut" unicode="&#x2dd;" 
d="M300 800v-100h-200v100h100v100h200v-100h-100zM600 800v-100h-200v100h100v100h200v-100h-100z" />
    <glyph glyph-name="uni037E" unicode="&#x37e;" horiz-adv-x="500" 
d="M200 0v200h200v-200h-100v-100h-200v100h100zM200 500v200h200v-200h-200z" />
    <glyph glyph-name="tonos" unicode="&#x384;" horiz-adv-x="500" 
d="M300 800v-100h-200v100h100v100h200v-100h-100z" />
    <glyph glyph-name="dieresistonos" unicode="&#x385;" 
d="M100 700v200h200v-200h-200zM500 1000v-100h-200v100h100v100h200v-100h-100zM500 700v200h200v-200h-200z" />
    <glyph glyph-name="Alphatonos" unicode="&#x386;" horiz-adv-x="1200" 
d="M300 800v-100h-200v100h100v100h200v-100h-100zM500 0v800h100v100h400v-100h100v-800h-200v300h-200v-300h-200zM700 400h200v400h-200v-400z" />
    <glyph glyph-name="anoteleia" unicode="&#x387;" horiz-adv-x="400" 
d="M100 400v200h200v-200h-200z" />
    <glyph glyph-name="Epsilontonos" unicode="&#x388;" horiz-adv-x="1200" 
d="M300 800v-100h-200v100h100v100h200v-100h-100zM500 0v900h600v-100h-400v-300h300v-100h-300v-300h400v-100h-600z" />
    <glyph glyph-name="Etatonos" unicode="&#x389;" horiz-adv-x="1200" 
d="M300 800v-100h-200v100h100v100h200v-100h-100zM500 0v900h200v-400h200v400h200v-900h-200v400h-200v-400h-200z" />
    <glyph glyph-name="Iotatonos" unicode="&#x38a;" horiz-adv-x="1000" 
d="M300 800v-100h-200v100h100v100h200v-100h-100zM500 0v100h100v700h-100v100h400v-100h-100v-700h100v-100h-400z" />
    <glyph glyph-name="Omicrontonos" unicode="&#x38c;" horiz-adv-x="1200" 
d="M300 800v-100h-200v100h100v100h200v-100h-100zM600 0v100h-100v700h100v100h400v-100h100v-700h-100v-100h-400zM700 100h200v700h-200v-700z" />
    <glyph glyph-name="Upsilontonos" unicode="&#x38e;" horiz-adv-x="1200" 
d="M300 800v-100h-200v100h100v100h200v-100h-100zM700 0v400h-100v100h-100v400h200v-400h200v400h200v-400h-100v-100h-100v-400h-200z" />
    <glyph glyph-name="Omegatonos" unicode="&#x38f;" horiz-adv-x="1300" 
d="M300 800v-100h-200v100h100v100h200v-100h-100zM500 0v100h100v100h-100v600h100v100h500v-100h100v-600h-100v-100h100v-100h-300v200h100v600h-300v-600h100v-200h-300z" />
    <glyph glyph-name="iotadieresistonos" unicode="&#x390;" horiz-adv-x="600" 
d="M500 0h-200v100h-100v600h200v-600h100v-100zM0 800v200h200v-200h-200zM400 1100v-100h-200v100h100v100h200v-100h-100zM400 800v200h200v-200h-200z" />
    <glyph glyph-name="Alpha" unicode="&#x391;" 
d="M100 0v800h100v100h400v-100h100v-800h-200v300h-200v-300h-200zM300 400h200v400h-200v-400z" />
    <glyph glyph-name="Beta" unicode="&#x392;" 
d="M100 0v900h500v-100h100v-300h-100v-100h100v-300h-100v-100h-500zM300 500h200v300h-200v-300zM300 100h200v300h-200v-300z" />
    <glyph glyph-name="Gamma" unicode="&#x393;" 
d="M100 0v900h600v-100h-400v-800h-200z" />
    <glyph glyph-name="Delta" unicode="&#x394;" 
d="M100 0v500h100v200h100v200h200v-200h100v-200h100v-500h-600zM300 100h200v400h-200v-400z" />
    <glyph glyph-name="Epsilon" unicode="&#x395;" 
d="M100 0v900h600v-100h-400v-300h300v-100h-300v-300h400v-100h-600z" />
    <glyph glyph-name="Zeta" unicode="&#x396;" 
d="M100 0v300h100v100h100v100h100v100h100v200h-400v100h600v-300h-100v-100h-100v-100h-100v-100h-100v-200h400v-100h-600z" />
    <glyph glyph-name="Eta" unicode="&#x397;" 
d="M100 0v900h200v-400h200v400h200v-900h-200v400h-200v-400h-200z" />
    <glyph glyph-name="Theta" unicode="&#x398;" 
d="M200 0v100h-100v700h100v100h400v-100h100v-700h-100v-100h-400zM300 500h200v300h-200v-300zM300 100h200v300h-200v-300z" />
    <glyph glyph-name="Iota" unicode="&#x399;" horiz-adv-x="600" 
d="M100 0v100h100v700h-100v100h400v-100h-100v-700h100v-100h-400z" />
    <glyph glyph-name="Kappa" unicode="&#x39a;" 
d="M100 0v900h200v-400h100v100h100v300h200v-300h-100v-100h-100v-100h100v-100h100v-300h-200v300h-100v100h-100v-400h-200z" />
    <glyph glyph-name="Lambda" unicode="&#x39b;" 
d="M300 0h-200v500h100v200h100v200h200v-200h100v-200h100v-500h-200v500h-200v-500z" />
    <glyph glyph-name="Mu" unicode="&#x39c;" horiz-adv-x="900" 
d="M100 0v900h100v-100h100v-100h100v-100h100v100h100v100h100v100h100v-900h-200v500h-100v-100h-100v100h-100v-500h-200z" />
    <glyph glyph-name="Nu" unicode="&#x39d;" 
d="M100 0v900h200v-200h100v-100h100v300h200v-900h-200v400h-100v100h-100v-500h-200z" />
    <glyph glyph-name="Xi" unicode="&#x39e;" 
d="M500 100h200v-100h-600v100h200v300h-200v100h200v300h-200v100h600v-100h-200v-300h200v-100h-200v-300z" />
    <glyph glyph-name="Omicron" unicode="&#x39f;" 
d="M200 0v100h-100v700h100v100h400v-100h100v-700h-100v-100h-400zM300 100h200v700h-200v-700z" />
    <glyph glyph-name="Pi" unicode="&#x3a0;" 
d="M100 0v900h600v-900h-200v800h-200v-800h-200z" />
    <glyph glyph-name="Rho" unicode="&#x3a1;" 
d="M100 0v900h500v-100h100v-300h-100v-100h-300v-400h-200zM300 500h200v300h-200v-300z" />
    <glyph glyph-name="Sigma" unicode="&#x3a3;" 
d="M100 900h600v-100h-400v-100h100v-100h100v-100h100v-100h-100v-100h-100v-100h-100v-100h400v-100h-600v200h100v100h100v100h100v100h-100v100h-100v100h-100v200z" />
    <glyph glyph-name="Tau" unicode="&#x3a4;" 
d="M300 0v800h-200v100h600v-100h-200v-800h-200z" />
    <glyph glyph-name="Upsilon" unicode="&#x3a5;" 
d="M300 0v400h-100v100h-100v400h200v-400h200v400h200v-400h-100v-100h-100v-400h-200z" />
    <glyph glyph-name="Phi" unicode="&#x3a6;" horiz-adv-x="1000" 
d="M600 300h100v300h-100v-300zM400 0v200h-200v100h-100v300h100v100h200v200h200v-200h200v-100h100v-300h-100v-100h-200v-200h-200zM300 300h100v300h-100v-300z" />
    <glyph glyph-name="Chi" unicode="&#x3a7;" 
d="M100 0v300h100v100h100v100h-100v100h-100v300h200v-300h200v300h200v-300h-100v-100h-100v-100h100v-100h100v-300h-200v300h-200v-300h-200z" />
    <glyph glyph-name="Psi" unicode="&#x3a8;" horiz-adv-x="1000" 
d="M400 900h200v-400h100v400h200v-400h-100v-100h-200v-400h-200v400h-200v100h-100v400h200v-400h100v400z" />
    <glyph glyph-name="Omega" unicode="&#x3a9;" horiz-adv-x="900" 
d="M100 0v100h100v100h-100v600h100v100h500v-100h100v-600h-100v-100h100v-100h-300v200h100v600h-300v-600h100v-200h-300z" />
    <glyph glyph-name="Iotadieresis" unicode="&#x3aa;" horiz-adv-x="600" 
d="M100 0v100h100v700h-100v100h400v-100h-100v-700h100v-100h-400zM0 1000v200h200v-200h-200zM400 1000v200h200v-200h-200z" />
    <glyph glyph-name="Upsilondieresis" unicode="&#x3ab;" 
d="M300 0v400h-100v100h-100v400h200v-400h200v400h200v-400h-100v-100h-100v-400h-200zM100 1000v200h200v-200h-200zM500 1000v200h200v-200h-200z" />
    <glyph glyph-name="alphatonos" unicode="&#x3ac;" 
d="M500 100v500h-200v-500h200zM500 600h100v100h200v-100h-100v-500h100v-100h-200v100h-100v-100h-300v100h-100v500h100v100h300v-100zM500 900v-100h-200v100h100v100h200v-100h-100z" />
    <glyph glyph-name="epsilontonos" unicode="&#x3ad;" 
d="M500 300h200v-200h-100v-100h-400v100h-100v200h100v100h-100v200h100v100h400v-100h100v-200h-200v200h-200v-200h100v-100h-100v-200h200v200zM500 900v-100h-200v100h100v100h200v-100h-100z" />
    <glyph glyph-name="etatonos" unicode="&#x3ae;" 
d="M500 -200v800h-200v-600h-200v700h500v-100h100v-800h-200zM500 900v-100h-200v100h100v100h200v-100h-100z" />
    <glyph glyph-name="iotatonos" unicode="&#x3af;" horiz-adv-x="600" 
d="M500 0h-200v100h-100v600h200v-600h100v-100zM400 900v-100h-200v100h100v100h200v-100h-100z" />
    <glyph glyph-name="upsilondieresistonos" unicode="&#x3b0;" 
d="M200 0v100h-100v600h200v-600h200v600h200v-600h-100v-100h-400zM100 800v200h200v-200h-200zM500 1100v-100h-200v100h100v100h200v-100h-100zM500 800v200h200v-200h-200z" />
    <glyph glyph-name="alpha" unicode="&#x3b1;" 
d="M500 100v500h-200v-500h200zM500 600h100v100h200v-100h-100v-500h100v-100h-200v100h-100v-100h-300v100h-100v500h100v100h300v-100z" />
    <glyph glyph-name="beta" unicode="&#x3b2;" 
d="M300 0v-200h-200v1000h100v100h400v-100h100v-300h-100v-100h100v-300h-100v-100h-300zM300 500h200v300h-200v-300zM300 100h200v300h-200v-300z" />
    <glyph glyph-name="gamma" unicode="&#x3b3;" 
d="M300 -200v400h-100v100h-100v400h200v-400h200v400h200v-400h-100v-100h-100v-400h-200z" />
    <glyph glyph-name="delta" unicode="&#x3b4;" 
d="M300 100h200v300h-200v-300zM700 900v-100h-200v-100h100v-100h100v-500h-100v-100h-400v100h-100v300h100v100h300v100h-100v100h-100v100h-100v100h500z" />
    <glyph glyph-name="epsilon" unicode="&#x3b5;" 
d="M500 300h200v-200h-100v-100h-400v100h-100v200h100v100h-100v200h100v100h400v-100h100v-200h-200v200h-200v-200h100v-100h-100v-200h200v200z" />
    <glyph glyph-name="zeta" unicode="&#x3b6;" 
d="M200 100h-100v300h100v100h100v100h100v100h100v100h-400v100h600v-200h-100v-100h-100v-100h-100v-100h-100v-300h400v-200h-100v-100h-300v100h200v100h-300v100z" />
    <glyph glyph-name="eta" unicode="&#x3b7;" 
d="M500 -200v800h-200v-600h-200v700h500v-100h100v-800h-200z" />
    <glyph glyph-name="theta" unicode="&#x3b8;" 
d="M200 0v100h-100v700h100v100h400v-100h100v-700h-100v-100h-400zM300 500h200v300h-200v-300zM300 100h200v300h-200v-300z" />
    <glyph glyph-name="iota" unicode="&#x3b9;" horiz-adv-x="600" 
d="M500 0h-200v100h-100v600h200v-600h100v-100z" />
    <glyph glyph-name="kappa" unicode="&#x3ba;" 
d="M100 0v700h200v-300h100v100h100v200h200v-200h-100v-100h-100v-100h100v-100h100v-200h-200v200h-100v100h-100v-300h-200z" />
    <glyph glyph-name="lambda" unicode="&#x3bb;" 
d="M100 0v200h100v200h100v200h100v100h-100v100h-100v100h200v-100h100v-100h100v-100h100v-600h-200v400h-100v-200h-100v-200h-200z" />
    <glyph glyph-name="mu" unicode="&#x3bc;" 
d="M100 -200v900h200v-600h200v-100h-200v-200h-200zM700 100h100v-100h-200v100h-100v600h200v-600z" />
    <glyph glyph-name="nu" unicode="&#x3bd;" 
d="M300 0v100h-100v100h-100v500h200v-500h200v500h200v-500h-100v-100h-100v-100h-200z" />
    <glyph glyph-name="xi" unicode="&#x3be;" 
d="M300 -200v100h200v100h-300v100h-100v200h100v100h100v100h-200v100h100v100h100v100h-200v100h500v-100h-100v-100h-100v-100h200v-100h-100v-100h-100v-100h-100v-200h400v-200h-100v-100h-300z" />
    <glyph glyph-name="omicron" unicode="&#x3bf;" 
d="M200 0v100h-100v500h100v100h400v-100h100v-500h-100v-100h-400zM300 100h200v500h-200v-500z" />
    <glyph glyph-name="pi" unicode="&#x3c0;" 
d="M100 0v600h-100v100h800v-100h-100v-600h-200v600h-200v-600h-200z" />
    <glyph glyph-name="rho" unicode="&#x3c1;" 
d="M300 100h200v500h-200v-500zM300 0v-200h-200v800h100v100h400v-100h100v-500h-100v-100h-300z" />
    <glyph glyph-name="sigma1" unicode="&#x3c2;" 
d="M300 -200v100h200v100h-300v100h-100v500h100v100h400v-100h100v-200h-200v200h-200v-500h400v-200h-100v-100h-300z" />
    <glyph glyph-name="sigma" unicode="&#x3c3;" 
d="M200 0v100h-100v500h100v100h600v-100h-100v-500h-100v-100h-400zM300 100h200v500h-200v-500z" />
    <glyph glyph-name="tau" unicode="&#x3c4;" 
d="M500 100h100v-100h-200v100h-100v500h-200v100h600v-100h-200v-500z" />
    <glyph glyph-name="upsilon" unicode="&#x3c5;" 
d="M200 0v100h-100v600h200v-600h200v600h200v-600h-100v-100h-400z" />
    <glyph glyph-name="phi" unicode="&#x3c6;" horiz-adv-x="1000" 
d="M600 100h100v500h-100v-500zM400 600h-100v-500h100v500zM400 600h100v100h300v-100h100v-500h-100v-100h-200v-200h-200v200h-200v100h-100v500h100v100h200v-100z" />
    <glyph glyph-name="chi" unicode="&#x3c7;" 
d="M100 -200v300h100v100h100v100h-100v100h-100v300h200v-300h200v300h200v-300h-100v-100h-100v-100h100v-100h100v-300h-200v300h-200v-300h-200z" />
    <glyph glyph-name="psi" unicode="&#x3c8;" horiz-adv-x="1000" 
d="M400 700h200v-600h100v600h200v-600h-100v-100h-200v-200h-200v200h-200v100h-100v600h200v-600h100v600z" />
    <glyph glyph-name="omega" unicode="&#x3c9;" horiz-adv-x="1000" 
d="M600 100h-200v400h200v-400zM800 100v-100h-200v100h100v500h-100v100h200v-100h100v-500h-100zM300 100h100v-100h-200v100h-100v500h100v100h200v-100h-100v-500z" />
    <glyph glyph-name="iotadieresis" unicode="&#x3ca;" horiz-adv-x="600" 
d="M500 0h-200v100h-100v600h200v-600h100v-100zM0 800v200h200v-200h-200zM400 800v200h200v-200h-200z" />
    <glyph glyph-name="upsilondieresis" unicode="&#x3cb;" 
d="M200 0v100h-100v600h200v-600h200v600h200v-600h-100v-100h-400zM100 800v200h200v-200h-200zM500 800v200h200v-200h-200z" />
    <glyph glyph-name="omicrontonos" unicode="&#x3cc;" 
d="M200 0v100h-100v500h100v100h400v-100h100v-500h-100v-100h-400zM300 100h200v500h-200v-500zM500 900v-100h-200v100h100v100h200v-100h-100z" />
    <glyph glyph-name="upsilontonos" unicode="&#x3cd;" 
d="M200 0v100h-100v600h200v-600h200v600h200v-600h-100v-100h-400zM500 900v-100h-200v100h100v100h200v-100h-100z" />
    <glyph glyph-name="omegatonos" unicode="&#x3ce;" horiz-adv-x="1000" 
d="M600 100h-200v400h200v-400zM800 100v-100h-200v100h100v500h-100v100h200v-100h100v-500h-100zM300 100h100v-100h-200v100h-100v500h100v100h200v-100h-100v-500zM600 900v-100h-200v100h100v100h200v-100h-100z" />
    <glyph glyph-name="afii10023" unicode="&#x401;" 
d="M100 0v900h600v-100h-400v-300h300v-100h-300v-300h400v-100h-600zM100 1000v200h200v-200h-200zM500 1000v200h200v-200h-200z" />
    <glyph glyph-name="afii10051" unicode="&#x402;" horiz-adv-x="900" 
d="M400 800v-200h300v-100h100v-400h-100v-100h-200v100h100v400h-200v-500h-200v800h-100v100h700v-100h-400z" />
    <glyph glyph-name="afii10052" unicode="&#x403;" 
d="M100 0v900h600v-100h-400v-800h-200zM500 1100v-100h-200v100h100v100h200v-100h-100z" />
    <glyph glyph-name="afii10053" unicode="&#x404;" 
d="M500 300h200v-200h-100v-100h-400v100h-100v700h100v100h400v-100h100v-200h-200v200h-200v-300h200v-100h-200v-300h200v200z" />
    <glyph glyph-name="afii10054" unicode="&#x405;" 
d="M200 100h-100v200h200v-200h200v300h-300v100h-100v300h100v100h400v-100h100v-200h-200v200h-200v-300h300v-100h100v-300h-100v-100h-400v100z" />
    <glyph glyph-name="afii10055" unicode="&#x406;" horiz-adv-x="600" 
d="M100 0v100h100v700h-100v100h400v-100h-100v-700h100v-100h-400z" />
    <glyph glyph-name="afii10056" unicode="&#x407;" horiz-adv-x="600" 
d="M100 0v100h100v700h-100v100h400v-100h-100v-700h100v-100h-400zM0 1000v200h200v-200h-200zM400 1000v200h200v-200h-200z" />
    <glyph glyph-name="afii10057" unicode="&#x408;" 
d="M200 100h-100v200h200v-200h200v700h-100v100h300v-800h-100v-100h-400v100z" />
    <glyph glyph-name="afii10058" unicode="&#x409;" horiz-adv-x="1200" 
d="M700 100h200v300h-200v-300zM500 700h-100v-200h-100v-500h-200v500h100v200h100v200h400v-400h300v-100h100v-300h-100v-100h-500v700z" />
    <glyph glyph-name="afii10059" unicode="&#x40a;" horiz-adv-x="1200" 
d="M700 100h200v300h-200v-300zM500 400h-200v-400h-200v900h200v-400h200v400h200v-400h300v-100h100v-300h-100v-100h-500v400z" />
    <glyph glyph-name="afii10060" unicode="&#x40b;" horiz-adv-x="900" 
d="M400 800v-200h300v-100h100v-500h-200v500h-200v-500h-200v800h-100v100h700v-100h-400z" />
    <glyph glyph-name="afii10061" unicode="&#x40c;" 
d="M100 0v900h200v-400h100v100h100v300h200v-300h-100v-100h-100v-100h100v-100h100v-300h-200v300h-100v100h-100v-400h-200zM500 1100v-100h-200v100h100v100h200v-100h-100z" />
    <glyph glyph-name="afii10062" unicode="&#x40e;" 
d="M200 100h-100v200h200v-200h200v300h-300v100h-100v400h200v-400h200v400h200v-800h-100v-100h-400v100zM200 1000v100h-100v100h200v-100h200v100h200v-100h-100v-100h-400z" />
    <glyph glyph-name="afii10145" unicode="&#x40f;" 
d="M300 100h200v800h200v-900h-200v-200h-200v200h-200v900h200v-800z" />
    <glyph glyph-name="afii10017" unicode="&#x410;" 
d="M100 0v800h100v100h400v-100h100v-800h-200v300h-200v-300h-200zM300 400h200v400h-200v-400z" />
    <glyph glyph-name="afii10018" unicode="&#x411;" 
d="M300 100h200v300h-200v-300zM100 0v900h600v-100h-400v-300h300v-100h100v-300h-100v-100h-500z" />
    <glyph glyph-name="afii10019" unicode="&#x412;" 
d="M100 0v900h500v-100h100v-300h-100v-100h100v-300h-100v-100h-500zM300 500h200v300h-200v-300zM300 100h200v300h-200v-300z" />
    <glyph glyph-name="afii10020" unicode="&#x413;" 
d="M100 0v900h600v-100h-400v-800h-200z" />
    <glyph glyph-name="afii10021" unicode="&#x414;" 
d="M500 700h-100v-200h-100v-400h200v600zM600 -200v200h-400v-200h-200v300h100v400h100v200h100v200h400v-800h100v-300h-200z" />
    <glyph glyph-name="afii10022" unicode="&#x415;" 
d="M100 0v900h600v-100h-400v-300h300v-100h-300v-300h400v-100h-600z" />
    <glyph glyph-name="afii10024" unicode="&#x416;" horiz-adv-x="1200" 
d="M700 500h100v100h100v300h200v-300h-100v-100h-100v-100h100v-100h100v-300h-200v300h-100v100h-100v-400h-200v400h-100v-100h-100v-300h-200v300h100v100h100v100h-100v100h-100v300h200v-300h100v-100h100v400h200v-400z" />
    <glyph glyph-name="afii10025" unicode="&#x417;" 
d="M200 100h-100v200h200v-200h200v300h-200v100h200v300h-200v-200h-200v200h100v100h400v-100h100v-300h-100v-100h100v-300h-100v-100h-400v100z" />
    <glyph glyph-name="afii10026" unicode="&#x418;" 
d="M500 0v500h-100v-100h-100v-400h-200v900h200v-300h100v100h100v200h200v-900h-200z" />
    <glyph glyph-name="afii10027" unicode="&#x419;" 
d="M500 0v500h-100v-100h-100v-400h-200v900h200v-300h100v100h100v200h200v-900h-200zM200 1000v100h-100v100h200v-100h200v100h200v-100h-100v-100h-400z" />
    <glyph glyph-name="afii10028" unicode="&#x41a;" 
d="M100 0v900h200v-400h100v100h100v300h200v-300h-100v-100h-100v-100h100v-100h100v-300h-200v300h-100v100h-100v-400h-200z" />
    <glyph glyph-name="afii10029" unicode="&#x41b;" 
d="M300 0h-200v500h100v200h100v200h400v-900h-200v700h-100v-200h-100v-500z" />
    <glyph glyph-name="afii10030" unicode="&#x41c;" horiz-adv-x="900" 
d="M100 0v900h100v-100h100v-100h100v-100h100v100h100v100h100v100h100v-900h-200v500h-100v-100h-100v100h-100v-500h-200z" />
    <glyph glyph-name="afii10031" unicode="&#x41d;" 
d="M100 0v900h200v-400h200v400h200v-900h-200v400h-200v-400h-200z" />
    <glyph glyph-name="afii10032" unicode="&#x41e;" 
d="M200 0v100h-100v700h100v100h400v-100h100v-700h-100v-100h-400zM300 100h200v700h-200v-700z" />
    <glyph glyph-name="afii10033" unicode="&#x41f;" 
d="M100 0v900h600v-900h-200v800h-200v-800h-200z" />
    <glyph glyph-name="afii10034" unicode="&#x420;" 
d="M100 0v900h500v-100h100v-300h-100v-100h-300v-400h-200zM300 500h200v300h-200v-300z" />
    <glyph glyph-name="afii10035" unicode="&#x421;" 
d="M500 300h200v-200h-100v-100h-400v100h-100v700h100v100h400v-100h100v-200h-200v200h-200v-700h200v200z" />
    <glyph glyph-name="afii10036" unicode="&#x422;" 
d="M300 0v800h-200v100h600v-100h-200v-800h-200z" />
    <glyph glyph-name="afii10037" unicode="&#x423;" 
d="M200 100h-100v200h200v-200h200v300h-300v100h-100v400h200v-400h200v400h200v-800h-100v-100h-400v100z" />
    <glyph glyph-name="afii10038" unicode="&#x424;" horiz-adv-x="1000" 
d="M600 300h100v300h-100v-300zM400 0v200h-200v100h-100v300h100v100h200v200h200v-200h200v-100h100v-300h-100v-100h-200v-200h-200zM300 300h100v300h-100v-300z" />
    <glyph glyph-name="afii10039" unicode="&#x425;" 
d="M100 0v300h100v100h100v100h-100v100h-100v300h200v-300h200v300h200v-300h-100v-100h-100v-100h100v-100h100v-300h-200v300h-200v-300h-200z" />
    <glyph glyph-name="afii10040" unicode="&#x426;" 
d="M300 100h200v800h200v-800h100v-300h-200v200h-500v900h200v-800z" />
    <glyph glyph-name="afii10041" unicode="&#x427;" 
d="M500 0v400h-300v100h-100v400h200v-400h200v400h200v-900h-200z" />
    <glyph glyph-name="afii10042" unicode="&#x428;" horiz-adv-x="1200" 
d="M100 0v900h200v-800h200v800h200v-800h200v800h200v-900h-1000z" />
    <glyph glyph-name="afii10043" unicode="&#x429;" horiz-adv-x="1200" 
d="M1000 0h-900v900h200v-800h200v800h200v-800h200v800h200v-800h100v-300h-200v200z" />
    <glyph glyph-name="afii10044" unicode="&#x42a;" horiz-adv-x="1000" 
d="M500 100h200v300h-200v-300zM500 500h300v-100h100v-300h-100v-100h-500v800h-200v100h400v-400z" />
    <glyph glyph-name="afii10045" unicode="&#x42b;" horiz-adv-x="1100" 
d="M300 900v-400h300v-100h100v-300h-100v-100h-500v900h200zM300 100h200v300h-200v-300zM800 0v900h200v-900h-200z" />
    <glyph glyph-name="afii10046" unicode="&#x42c;" 
d="M300 900v-400h300v-100h100v-300h-100v-100h-500v900h200zM300 100h200v300h-200v-300z" />
    <glyph glyph-name="afii10047" unicode="&#x42d;" 
d="M300 100h200v300h-200v100h200v300h-200v-200h-200v200h100v100h400v-100h100v-700h-100v-100h-400v100h-100v200h200v-200z" />
    <glyph glyph-name="afii10048" unicode="&#x42e;" horiz-adv-x="1200" 
d="M700 100h200v700h-200v-700zM500 500v300h100v100h400v-100h100v-700h-100v-100h-400v100h-100v300h-200v-400h-200v900h200v-400h200z" />
    <glyph glyph-name="afii10049" unicode="&#x42f;" 
d="M500 0v400h-200v-400h-200v400h100v100h-100v300h100v100h500v-900h-200zM500 800h-200v-300h200v300z" />
    <glyph glyph-name="afii10065" unicode="&#x430;" 
d="M200 0v100h-100v200h100v100h300v200h-200v-100h-200v100h100v100h400v-100h100v-600h-500zM300 100h200v200h-200v-200z" />
    <glyph glyph-name="afii10066" unicode="&#x431;" 
d="M200 0v100h-100v600h100v100h100v100h400v-100h-300v-100h-100v-100h300v-100h100v-400h-100v-100h-400zM300 100h200v400h-200v-400z" />
    <glyph glyph-name="afii10067" unicode="&#x432;" 
d="M100 0v700h500v-100h100v-200h-100v-100h100v-200h-100v-100h-500zM300 400h200v200h-200v-200zM300 100h200v200h-200v-200z" />
    <glyph glyph-name="afii10068" unicode="&#x433;" 
d="M100 0v700h600v-100h-400v-600h-200z" />
    <glyph glyph-name="afii10069" unicode="&#x434;" 
d="M500 500h-100v-200h-100v-200h200v400zM600 -200v200h-400v-200h-200v300h100v200h100v200h100v200h400v-600h100v-300h-200z" />
    <glyph glyph-name="afii10070" unicode="&#x435;" 
d="M500 600h-200v-200h200v200zM300 300v-200h200v100h200v-100h-100v-100h-400v100h-100v500h100v100h400v-100h100v-300h-400z" />
    <glyph glyph-name="afii10072" unicode="&#x436;" horiz-adv-x="1000" 
d="M600 400h100v300h200v-300h-100v-100h100v-300h-200v300h-100v-300h-200v300h-100v-300h-200v300h100v100h-100v300h200v-300h100v300h200v-300z" />
    <glyph glyph-name="afii10073" unicode="&#x437;" 
d="M200 100h-100v200h200v-200h200v200h-100v100h100v200h-200v-200h-200v200h100v100h400v-100h100v-200h-100v-100h100v-200h-100v-100h-400v100z" />
    <glyph glyph-name="afii10074" unicode="&#x438;" 
d="M500 0v300h-100v-100h-100v-200h-200v700h200v-300h100v100h100v200h200v-700h-200z" />
    <glyph glyph-name="afii10075" unicode="&#x439;" 
d="M500 0v300h-100v-100h-100v-200h-200v700h200v-300h100v100h100v200h200v-700h-200zM200 800v100h-100v100h200v-100h200v100h200v-100h-100v-100h-400z" />
    <glyph glyph-name="afii10076" unicode="&#x43a;" 
d="M100 0v700h200v-300h100v100h100v200h200v-200h-100v-100h-100v-100h100v-100h100v-200h-200v200h-100v100h-100v-300h-200z" />
    <glyph glyph-name="afii10077" unicode="&#x43b;" 
d="M300 0h-200v300h100v200h100v200h400v-700h-200v500h-100v-200h-100v-300z" />
    <glyph glyph-name="afii10078" unicode="&#x43c;" horiz-adv-x="900" 
d="M100 0v700h100v-100h100v-100h100v-100h100v100h100v100h100v100h100v-700h-200v300h-100v-100h-100v100h-100v-300h-200z" />
    <glyph glyph-name="afii10079" unicode="&#x43d;" 
d="M100 0v700h200v-300h200v300h200v-700h-200v300h-200v-300h-200z" />
    <glyph glyph-name="afii10080" unicode="&#x43e;" 
d="M200 0v100h-100v500h100v100h400v-100h100v-500h-100v-100h-400zM300 100h200v500h-200v-500z" />
    <glyph glyph-name="afii10081" unicode="&#x43f;" 
d="M100 0v700h600v-700h-200v600h-200v-600h-200z" />
    <glyph glyph-name="afii10082" unicode="&#x440;" 
d="M100 -200v900h500v-100h100v-500h-100v-100h-300v-200h-200zM300 100h200v500h-200v-500z" />
    <glyph glyph-name="afii10083" unicode="&#x441;" 
d="M500 300h200v-200h-100v-100h-400v100h-100v500h100v100h400v-100h100v-200h-200v200h-200v-500h200v200z" />
    <glyph glyph-name="afii10084" unicode="&#x442;" 
d="M300 0v600h-200v100h600v-100h-200v-600h-200z" />
    <glyph glyph-name="afii10085" unicode="&#x443;" 
d="M200 -100h-100v100h200v-100h200v200h-300v100h-100v500h200v-500h200v500h200v-800h-100v-100h-400v100z" />
    <glyph glyph-name="afii10086" unicode="&#x444;" horiz-adv-x="1000" 
d="M600 100h100v500h-100v-500zM300 100h100v500h-100v-500zM400 -200v200h-200v100h-100v500h100v100h200v200h200v-200h200v-100h100v-500h-100v-100h-200v-200h-200z" />
    <glyph glyph-name="afii10087" unicode="&#x445;" 
d="M100 0v200h100v100h100v100h-100v100h-100v200h200v-200h200v200h200v-200h-100v-100h-100v-100h100v-100h100v-200h-200v200h-200v-200h-200z" />
    <glyph glyph-name="afii10088" unicode="&#x446;" 
d="M300 100h200v600h200v-600h100v-300h-200v200h-500v700h200v-600z" />
    <glyph glyph-name="afii10089" unicode="&#x447;" 
d="M500 0v200h-300v100h-100v400h200v-400h200v400h200v-700h-200z" />
    <glyph glyph-name="afii10090" unicode="&#x448;" horiz-adv-x="1000" 
d="M100 0v700h200v-600h100v600h200v-600h100v600h200v-700h-800z" />
    <glyph glyph-name="afii10091" unicode="&#x449;" horiz-adv-x="1000" 
d="M800 0h-700v700h200v-600h100v600h200v-600h100v600h200v-600h100v-300h-200v200z" />
    <glyph glyph-name="afii10092" unicode="&#x44a;" horiz-adv-x="900" 
d="M400 100h200v300h-200v-300zM400 500h300v-100h100v-300h-100v-100h-500v600h-100v100h300v-200z" />
    <glyph glyph-name="afii10093" unicode="&#x44b;" horiz-adv-x="1100" 
d="M300 700v-200h300v-100h100v-300h-100v-100h-500v700h200zM300 100h200v300h-200v-300zM800 0v700h200v-700h-200z" />
    <glyph glyph-name="afii10094" unicode="&#x44c;" 
d="M300 700v-200h300v-100h100v-300h-100v-100h-500v700h200zM300 100h200v300h-200v-300z" />
    <glyph glyph-name="afii10095" unicode="&#x44d;" 
d="M300 100h200v200h-100v100h100v200h-200v-200h-200v200h100v100h400v-100h100v-500h-100v-100h-400v100h-100v200h200v-200z" />
    <glyph glyph-name="afii10096" unicode="&#x44e;" horiz-adv-x="1100" 
d="M600 100h200v500h-200v-500zM400 400v200h100v100h400v-100h100v-500h-100v-100h-400v100h-100v200h-100v-300h-200v700h200v-300h100z" />
    <glyph glyph-name="afii10097" unicode="&#x44f;" 
d="M500 0v200h-200v-200h-200v200h100v100h-100v300h100v100h500v-700h-200zM500 600h-200v-300h200v300z" />
    <glyph glyph-name="afii10071" unicode="&#x451;" 
d="M500 600h-200v-200h200v200zM300 300v-200h200v100h200v-100h-100v-100h-400v100h-100v500h100v100h400v-100h100v-300h-400zM100 800v200h200v-200h-200zM500 800v200h200v-200h-200z" />
    <glyph glyph-name="afii10099" unicode="&#x452;" 
d="M300 700v-100h300v-100h100v-600h-100v-100h-200v100h100v600h-200v-500h-200v700h-100v100h100v100h200v-100h200v-100h-200z" />
    <glyph glyph-name="afii10100" unicode="&#x453;" 
d="M100 0v700h600v-100h-400v-600h-200zM500 900v-100h-200v100h100v100h200v-100h-100z" />
    <glyph glyph-name="afii10101" unicode="&#x454;" 
d="M500 300h200v-200h-100v-100h-400v100h-100v500h100v100h400v-100h100v-200h-200v200h-200v-200h100v-100h-100v-200h200v200z" />
    <glyph glyph-name="afii10102" unicode="&#x455;" 
d="M200 100h-100v100h200v-100h200v200h-300v100h-100v200h100v100h400v-100h100v-100h-200v100h-200v-200h300v-100h100v-200h-100v-100h-400v100z" />
    <glyph glyph-name="afii10103" unicode="&#x456;" horiz-adv-x="600" 
d="M100 0v100h100v500h-100v100h300v-600h100v-100h-400zM200 800v200h200v-200h-200z" />
    <glyph glyph-name="afii10104" unicode="&#x457;" horiz-adv-x="600" 
d="M100 0v100h100v500h-100v100h300v-600h100v-100h-400zM0 800v200h200v-200h-200zM400 800v200h200v-200h-200z" />
    <glyph glyph-name="afii10105" unicode="&#x458;" 
d="M200 -100h-100v200h200v-200h200v700h-100v100h300v-800h-100v-100h-400v100zM500 800v200h200v-200h-200z" />
    <glyph glyph-name="afii10106" unicode="&#x459;" horiz-adv-x="1200" 
d="M700 100h200v200h-200v-200zM500 500h-100v-200h-100v-300h-200v300h100v200h100v200h400v-300h300v-100h100v-200h-100v-100h-500v500z" />
    <glyph glyph-name="afii10107" unicode="&#x45a;" horiz-adv-x="1200" 
d="M700 100h200v200h-200v-200zM500 300h-200v-300h-200v700h200v-300h200v300h200v-300h300v-100h100v-200h-100v-100h-500v300z" />
    <glyph glyph-name="afii10108" unicode="&#x45b;" 
d="M300 700v-100h300v-100h100v-500h-200v500h-200v-500h-200v700h-100v100h100v100h200v-100h200v-100h-200z" />
    <glyph glyph-name="afii10109" unicode="&#x45c;" 
d="M500 900v-100h-200v100h100v100h200v-100h-100zM100 0v700h200v-300h100v100h100v200h200v-200h-100v-100h-100v-100h100v-100h100v-200h-200v200h-100v100h-100v-300h-200z" />
    <glyph glyph-name="afii10110" unicode="&#x45e;" 
d="M200 -100h-100v100h200v-100h200v200h-300v100h-100v500h200v-500h200v500h200v-800h-100v-100h-400v100zM200 800v100h-100v100h200v-100h200v100h200v-100h-100v-100h-400z" />
    <glyph glyph-name="afii10193" unicode="&#x45f;" 
d="M300 100h200v600h200v-700h-200v-200h-200v200h-200v700h200v-600z" />
    <glyph glyph-name="afii10050" unicode="&#x490;" 
d="M300 0h-200v900h400v100h200v-200h-400v-800z" />
    <glyph glyph-name="afii10098" unicode="&#x491;" 
d="M300 0h-200v700h400v100h200v-200h-400v-600z" />
    <glyph glyph-name="endash" unicode="&#x2013;" horiz-adv-x="600" 
d="M100 500h400v-100h-400v100z" />
    <glyph glyph-name="emdash" unicode="&#x2014;" horiz-adv-x="1000" 
d="M100 500h800v-100h-800v100z" />
    <glyph glyph-name="quoteleft" unicode="&#x2018;" horiz-adv-x="500" 
d="M300 800v-200h-200v200h100v100h200v-100h-100z" />
    <glyph glyph-name="quoteright" unicode="&#x2019;" horiz-adv-x="500" 
d="M200 700v200h200v-200h-100v-100h-200v100h100z" />
    <glyph glyph-name="quotesinglbase" unicode="&#x201a;" horiz-adv-x="500" 
d="M200 0v200h200v-200h-100v-100h-200v100h100z" />
    <glyph glyph-name="quotedblleft" unicode="&#x201c;" 
d="M300 800v-200h-200v200h100v100h200v-100h-100zM600 800v-200h-200v200h100v100h200v-100h-100z" />
    <glyph glyph-name="quotedblright" unicode="&#x201d;" 
d="M200 700v200h200v-200h-100v-100h-200v100h100zM500 700v200h200v-200h-100v-100h-200v100h100z" />
    <glyph glyph-name="quotedblbase" unicode="&#x201e;" 
d="M200 0v200h200v-200h-100v-100h-200v100h100zM500 0v200h200v-200h-100v-100h-200v100h100z" />
    <glyph glyph-name="dagger" unicode="&#x2020;" 
d="M500 700h200v-100h-200v-600h-200v600h-200v100h200v200h200v-200z" />
    <glyph glyph-name="daggerdbl" unicode="&#x2021;" 
d="M500 700h200v-100h-200v-300h200v-100h-200v-200h-200v200h-200v100h200v300h-200v100h200v200h200v-200z" />
    <glyph glyph-name="bullet" unicode="&#x2022;" horiz-adv-x="500" 
d="M100 300v300h300v-300h-300z" />
    <glyph glyph-name="ellipsis" unicode="&#x2026;" horiz-adv-x="1200" 
d="M100 0v200h200v-200h-200zM500 0v200h200v-200h-200zM900 0v200h200v-200h-200z" />
    <glyph glyph-name="perthousand" unicode="&#x2030;" horiz-adv-x="2000" 
d="M1600 100h100v300h-100v-300zM300 500h100v300h-100v-300zM1000 100h100v300h-100v-300zM600 500h100v100h100v100h100v100h100v100h200v-100h-100v-100h-100v-100h-100v-100h-100v-100h-100v-100h-100v-100h-100v-100h-100v-100h-200v100h100v100h100v100h100v100h100
v100zM1500 0v100h-100v300h100v100h300v-100h100v-300h-100v-100h-300zM900 500h300v-100h100v-300h-100v-100h-300v100h-100v300h100v100zM500 400h-300v100h-100v300h100v100h300v-100h100v-300h-100v-100z" />
    <glyph glyph-name="guilsinglleft" unicode="&#x2039;" horiz-adv-x="600" 
d="M500 200h-200v100h-100v100h-100v100h100v100h100v100h200v-100h-100v-100h-100v-100h100v-100h100v-100z" />
    <glyph glyph-name="guilsinglright" unicode="&#x203a;" horiz-adv-x="600" 
d="M100 300h100v100h100v100h-100v100h-100v100h200v-100h100v-100h100v-100h-100v-100h-100v-100h-200v100z" />
    <glyph glyph-name="franc" unicode="&#x20a3;" horiz-adv-x="900" 
d="M400 200v-200h-200v200h-100v100h100v600h600v-100h-400v-300h300v-100h-300v-100h200v-100h-200z" />
    <glyph glyph-name="lira" unicode="&#x20a4;" horiz-adv-x="900" 
d="M600 600v200h-200v-200h200zM600 300h-200v-200h200v200zM600 600v-100h-200v-100h200v-100h200v-200h-100v-100h-600v100h100v200h-100v100h100v100h-100v100h100v200h100v100h400v-100h100v-200h-200z" />
    <glyph glyph-name="peseta" unicode="&#x20a7;" horiz-adv-x="1200" 
d="M100 0v900h500v-100h100v-300h-100v-100h-300v-400h-200zM300 500h200v300h-200v-300zM1000 700v-300h100v-100h-100v-300h-200v300h-100v100h100v300h200z" />
    <glyph glyph-name="Euro" unicode="&#x20ac;" horiz-adv-x="900" 
d="M600 600v200h-200v-200h200zM600 300h-200v-200h200v200zM600 600v-100h-200v-100h200v-100h200v-200h-100v-100h-400v100h-100v200h-100v100h100v100h-100v100h100v200h100v100h400v-100h100v-200h-200z" />
    <glyph glyph-name="uni20AF" unicode="&#x20af;" horiz-adv-x="1500" 
d="M1000 100h200v500h-200v-500zM1000 0v-200h-200v800h100v100h400v-100h100v-500h-100v-100h-300zM100 0v500h100v200h100v200h200v-200h100v-200h100v-500h-600zM300 100h200v400h-200v-400z" />
    <glyph glyph-name="uni20B1" unicode="&#x20b1;" horiz-adv-x="1000" 
d="M400 600v-100h200v100h-200zM400 700h200v100h-200v-100zM800 600v-100h-100v-100h-300v-400h-200v600h-100v100h100v200h500v-100h100v-100h100v-100h-100z" />
    <glyph glyph-name="uni20BD" unicode="&#x20bd;" horiz-adv-x="900" 
d="M400 500h200v300h-200v-300zM400 200v-200h-200v200h-100v100h100v600h500v-100h100v-300h-100v-100h-300v-100h200v-100h-200z" />
    <glyph glyph-name="uni2117" unicode="&#x2117;" horiz-adv-x="1000" 
d="M300 100h-100v100h100v-100zM700 100v100h100v-100h-100zM300 700h-100v100h100v-100zM600 600h100v-200h-100v200zM600 600h-200v-200h200v-100h-200v-100h-100v500h300v-100zM700 800h-400v100h400v-100zM800 700h100v-500h-100v500zM800 700h-100v100h100v-100z
M200 200h-100v500h100v-500zM300 100h400v-100h-400v100z" />
    <glyph glyph-name="trademark" unicode="&#x2122;" horiz-adv-x="1100" 
d="M700 700h-100v-200h-100v400h100v-100h100v-100zM900 700h-100v100h100v100h100v-400h-100v200zM200 800h-100v100h300v-100h-100v-300h-100v300zM700 700h100v-100h-100v100z" />
    <glyph glyph-name="uniE500" unicode="&#xe500;" 
d="M300 0h-200v500h100v200h100v200h200v-200h100v-200h100v-500h-200v500h-200v-500z" />
    <glyph glyph-name="uniE501" unicode="&#xe501;" 
d="M300 100h200v300h-200v-300zM100 0v900h600v-100h-400v-300h300v-100h100v-300h-100v-100h-500z" />
    <glyph glyph-name="uniE502" unicode="&#xe502;" 
d="M300 700h200v200h200v-300h-400v-300h400v-300h-200v200h-200v-200h-200v900h200v-200z" />
    <glyph glyph-name="uniE503" unicode="&#xe503;" 
d="M500 400h-200v-300h200v300zM200 0v100h-100v300h100v100h300v300h-400v100h600v-900h-500z" />
    <glyph glyph-name="uniE504" unicode="&#xe504;" 
d="M100 0v900h600v-100h-400v-300h300v-100h-300v-300h400v-100h-600z" />
    <glyph glyph-name="uniE505" unicode="&#xe505;" 
d="M100 0v900h600v-100h-400v-800h-200z" />
    <glyph glyph-name="uniE506" unicode="&#xe506;" 
d="M300 700h300v-100h100v-300h-100v-100h-300v-200h-200v900h600v-100h-400v-100zM300 600v-300h200v300h-200z" />
    <glyph glyph-name="uniE507" unicode="&#xe507;" 
d="M300 600v-300h200v300h-200zM300 200v-200h-200v900h200v-200h200v200h200v-900h-200v200h-200z" />
    <glyph glyph-name="uniE508" unicode="&#xe508;" horiz-adv-x="600" 
d="M100 0v100h100v700h-100v100h400v-100h-100v-700h100v-100h-400z" />
    <glyph glyph-name="uniE509" unicode="&#xe509;" 
d="M200 100h-100v200h200v-200h200v700h-100v100h300v-800h-100v-100h-400v100z" />
    <glyph glyph-name="uniE50A" unicode="&#xe50a;" 
d="M300 400v-100h400v-300h-200v200h-200v-200h-200v900h200v-200h200v200h200v-300h-400v-100h300v-100h-300z" />
    <glyph glyph-name="uniE50B" unicode="&#xe50b;" 
d="M300 900v-800h400v-100h-600v900h200z" />
    <glyph glyph-name="uniE50C" unicode="&#xe50c;" horiz-adv-x="900" 
d="M100 0v900h100v-100h100v-100h100v-100h100v100h100v100h100v100h100v-900h-200v500h-100v-100h-100v100h-100v-500h-200z" />
    <glyph glyph-name="uniE50D" unicode="&#xe50d;" 
d="M300 0h-200v900h600v-100h-400v-300h300v-100h100v-400h-200v400h-200v-400z" />
    <glyph glyph-name="uniE50E" unicode="&#xe50e;" 
d="M200 0v100h-100v700h100v100h400v-100h100v-700h-100v-100h-400zM300 100h200v700h-200v-700z" />
    <glyph glyph-name="uniE50F" unicode="&#xe50f;" 
d="M300 500h200v300h-200v-300zM600 900v-100h100v-300h-100v-100h-300v-300h400v-100h-600v900h500z" />
    <glyph glyph-name="uniE510" unicode="&#xe510;" 
d="M200 0v100h-100v700h100v100h400v-100h100v-700h-100v-100h-400zM300 500h200v300h-200v-300zM300 100h200v300h-200v-300z" />
    <glyph glyph-name="uniE511" unicode="&#xe511;" 
d="M300 500h200v300h-200v-300zM300 200v-200h-200v900h500v-100h100v-300h-100v-100h-300v-100h400v-300h-200v200h-200z" />
    <glyph glyph-name="uniE512" unicode="&#xe512;" 
d="M300 100h200v300h-300v100h-100v300h100v100h400v-100h100v-200h-200v200h-200v-300h400v-400h-100v-100h-300v100z" />
    <glyph glyph-name="uniE513" unicode="&#xe513;" 
d="M300 0v800h-200v100h600v-100h-200v-800h-200z" />
    <glyph glyph-name="uniE514" unicode="&#xe514;" 
d="M500 900h200v-900h-600v100h400v300h-300v100h-100v400h200v-400h200v400z" />
    <glyph glyph-name="uniE515" unicode="&#xe515;" 
d="M300 0v100h-100v100h-100v700h200v-700h200v700h200v-700h-100v-100h-100v-100h-200z" />
    <glyph glyph-name="uniE516" unicode="&#xe516;" horiz-adv-x="900" 
d="M500 200h100v700h200v-700h-100v-200h-200v200zM500 200h-100v500h100v-500zM200 0v200h-100v700h200v-700h100v-200h-200z" />
    <glyph glyph-name="uniE517" unicode="&#xe517;" 
d="M100 0v300h100v100h100v100h-100v100h-100v300h200v-300h200v300h200v-300h-100v-100h-100v-100h100v-100h100v-300h-200v300h-200v-300h-200z" />
    <glyph glyph-name="uniE518" unicode="&#xe518;" 
d="M200 500h-100v300h100v100h400v-100h100v-300h-100v-100h-100v-400h-200v400h-100v100zM500 500v300h-200v-300h200z" />
    <glyph glyph-name="uniE519" unicode="&#xe519;" 
d="M500 0h-300v100h-100v400h400v300h-200v-200h-200v200h100v100h400v-100h100v-300h-100v-100h-300v-300h200v-100z" />
    <glyph glyph-name="uniEFFD" unicode="&#xeffd;" horiz-adv-x="1000" 
d="M400 300h200v-100h-200v100zM300 500v100h100v-100h-100zM200 700v100h100v-100h-100zM700 100v100h100v-100h-100zM400 600v100h200v-100h-200zM600 600h100v-300h-100v300zM800 700h100v-500h-100v500zM200 200h-100v500h100v-500zM300 100h400v-100h-400v100zM300 100
h-100v100h100v-100zM700 800h-400v100h400v-100zM700 800h100v-100h-100v100zM400 300h-100v100h100v-100z" />
    <glyph glyph-name="uniEFFE" unicode="&#xeffe;" horiz-adv-x="1000" 
d="M400 600v-100h100v100h-100zM300 100h-100v100h-100v500h100v-400h100v300h100v100h300v100h100v-100h100v-500h-100v400h-100v-100h-100v-100h-100v-100h100v-100h-300v-100zM700 100v100h100v-100h-100zM200 700v100h100v-100h-100zM700 800h-400v100h400v-100z
M600 400h100v-100h-100v100zM300 100h400v-100h-400v100z" />
    <glyph glyph-name="uniEFFF" unicode="&#xefff;" horiz-adv-x="1100" 
d="M300 100h-100v100h100v-100zM200 200h-100v500h100v-500zM900 700h100v-500h-100v500zM800 800h-500v100h500v-100zM800 800h100v-100h-100v100zM300 700h200v-100h-100v-300h100v-100h-200v500zM300 700h-100v100h100v-100zM800 200h-200v500h200v-100h-100v-300h100
v-100zM800 200h100v-100h-100v100zM300 100h500v-100h-500v100z" />
    <glyph glyph-name="uniF000" unicode="&#xf000;" horiz-adv-x="1000" 
d="M500 100v-100h-100v600h-100v-300h-100v100h-100v300h100v100h200v-100h100v-100h100v-500h-100zM800 400v-100h-100v300h-100v200h200v-100h100v-300h-100z" />
  </font>
</defs>
</svg>
